<svg width="38" height="38" viewBox="0 0 38 38" fill="none" xmlns="http://www.w3.org/2000/svg">
<path fill-rule="evenodd" clip-rule="evenodd" d="M1.4725 17.2598C1.73575 16.8025 1.99797 16.343 2.259 15.8816C2.7308 15.0931 3.13923 14.2683 3.48041 13.415C1.33134 14.179 0 15.1895 0 16.1123C0 16.6348 0.428168 17.194 1.20925 17.7212L1.4725 17.2598Z" fill="#298C80"/>
<path d="M2.39844 18.377C4.86777 19.5143 8.71186 20.184 12.8932 20.184C16.2723 20.2639 19.638 19.7305 22.8268 18.6098L21.9249 14.995C21.7104 14.3623 21.305 13.8116 20.7646 13.4187C20.3574 13.0244 19.5344 12.2163 19.1747 11.8173C18.5686 11.1018 18.1715 10.2331 18.0272 9.30653C17.9378 8.7176 17.6353 8.18196 17.1769 7.80145C16.4439 7.37639 15.6563 7.05339 14.8359 6.84128C14.2856 6.61224 13.7903 6.26875 13.383 5.83361C13.1713 5.6209 12.9402 5.4283 12.6929 5.25819C11.3053 4.37603 10.0879 5.47803 9.74728 5.83636C9.19635 6.39841 8.60676 6.92128 7.98303 7.40111C7.48005 7.79135 6.99785 8.20764 6.53836 8.64836C5.91745 9.2686 5.70778 10.2844 5.39161 11.6137C5.15752 12.5997 5.15752 12.5596 5.04077 13.0184C4.65803 14.2587 4.11994 15.4457 3.43936 16.551C3.23036 16.9229 2.99627 17.334 2.39844 18.377ZM19.0004 14.0769C19.3751 14.0769 19.6789 14.3807 19.6789 14.7555C19.6789 15.1303 19.3752 15.4341 19.0004 15.4341C18.6256 15.4341 18.3218 15.1303 18.3218 14.7555C18.3218 14.3807 18.6256 14.0769 19.0004 14.0769ZM17.6432 16.7912C18.0179 16.7912 18.3218 17.095 18.3218 17.4698C18.3218 17.8445 18.018 18.1484 17.6432 18.1484C17.2684 18.1484 16.9646 17.8446 16.9646 17.4698C16.9646 17.095 17.2685 16.7912 17.6432 16.7912ZM16.9646 12.0412C16.9646 12.4159 16.6608 12.7198 16.286 12.7198C15.9113 12.7198 15.6074 12.416 15.6074 12.0412C15.6074 11.6664 15.9112 11.3626 16.286 11.3626C16.6608 11.3626 16.9646 11.6665 16.9646 12.0412ZM15.6075 8.64836C15.9822 8.64836 16.2861 8.95213 16.2861 9.32694C16.2861 9.70167 15.9823 10.0055 15.6075 10.0055C15.2327 10.0055 14.9289 9.70174 14.9289 9.32694C14.9289 8.95213 15.2327 8.64836 15.6075 8.64836ZM14.9289 14.7555C15.3037 14.7555 15.6075 15.0593 15.6075 15.4341C15.6075 15.8088 15.3037 16.1127 14.9289 16.1127C14.5541 16.1127 14.2504 15.8088 14.2504 15.434C14.2504 15.0593 14.5541 14.7555 14.9289 14.7555ZM12.2146 18.8269C11.8399 18.8269 11.536 18.5232 11.536 18.1484C11.536 17.7736 11.8398 17.4698 12.2146 17.4698C12.5893 17.4698 12.8932 17.7736 12.8932 18.1484C12.8932 18.5232 12.5894 18.8269 12.2146 18.8269ZM12.8932 12.7198C12.8932 13.0945 12.5894 13.3984 12.2146 13.3984C11.8399 13.3984 11.536 13.0946 11.536 12.7198C11.536 12.345 11.8398 12.0412 12.2146 12.0412C12.5894 12.0412 12.8932 12.345 12.8932 12.7198ZM11.5361 6.61261C11.9108 6.61261 12.2147 6.91639 12.2147 7.29119C12.2147 7.666 11.9109 7.96977 11.5361 7.96977C11.1613 7.96977 10.8575 7.666 10.8575 7.29119C10.8575 6.91639 11.1613 6.61261 11.5361 6.61261ZM10.1789 15.434C10.1789 15.8088 9.87516 16.1126 9.50036 16.1126C9.12562 16.1126 8.82177 15.8088 8.82177 15.434C8.82177 15.0593 9.12555 14.7554 9.50036 14.7554C9.87509 14.7555 10.1789 15.0593 10.1789 15.434ZM8.82177 9.32694C9.1965 9.32694 9.50036 9.63071 9.50036 10.0055C9.50036 10.3802 9.19658 10.6841 8.82177 10.6841C8.44697 10.6841 8.14319 10.3803 8.14319 10.0055C8.14319 9.63071 8.44704 9.32694 8.82177 9.32694ZM7.46461 12.0412C7.83934 12.0412 8.14319 12.345 8.14319 12.7198C8.14319 13.0945 7.83941 13.3984 7.46461 13.3984C7.0898 13.3984 6.78603 13.0946 6.78603 12.7198C6.7861 12.345 7.08988 12.0412 7.46461 12.0412ZM6.10752 16.7912C6.48225 16.7912 6.7861 17.095 6.7861 17.4698C6.7861 17.8445 6.48232 18.1484 6.10752 18.1484C5.73279 18.1484 5.42894 17.8446 5.42894 17.4698C5.42894 17.095 5.73271 16.7912 6.10752 16.7912Z" fill="#298C80"/>
<path fill-rule="evenodd" clip-rule="evenodd" d="M36.6415 14.7559H26.7344C27.2794 15.5781 27.281 16.6463 26.7385 17.4701H36.6415C37.3911 17.4701 37.9987 16.8625 37.9987 16.1129C37.9987 15.3634 37.391 14.7559 36.6415 14.7559Z" fill="#298C80"/>
<path fill-rule="evenodd" clip-rule="evenodd" d="M22.7461 13.5693C22.9752 13.9032 23.1436 14.2749 23.2435 14.6673L24.0823 18.0268C25.1713 17.4154 25.7875 16.7376 25.7875 16.1126C25.7875 15.2305 24.6461 14.3097 22.7461 13.5693Z" fill="#298C80"/>
<path d="M12.893 21.5411C9.18934 21.5411 3.92367 20.9746 0.75 19.0304L3.12159 28.5222C3.31782 29.3337 3.76551 30.0623 4.40067 30.6041C5.7205 31.7339 8.26175 33.0768 12.893 33.0768C17.5243 33.0768 20.0655 31.7339 21.3819 30.6068C22.0189 30.0646 22.4678 29.3346 22.6644 28.5216L25.0327 19.0446C21.8888 20.9657 16.6252 21.5411 12.893 21.5411ZM9.59383 30.7616C9.54923 30.936 9.43716 31.0855 9.28226 31.1773C9.12737 31.269 8.94241 31.2955 8.768 31.2508C7.48981 30.9634 6.29459 30.3868 5.274 29.5652C4.85793 29.2065 4.56559 28.7257 4.43867 28.1911L3.05375 22.6445C2.98421 22.4057 3.05086 22.148 3.2275 21.9729C3.40414 21.7978 3.66234 21.7333 3.90059 21.8048C4.13875 21.8764 4.31873 22.0725 4.36957 22.3161L5.75591 27.8641C5.81536 28.1227 5.95466 28.3561 6.15424 28.5311C7.01807 29.2184 8.02782 29.6989 9.10599 29.9357C9.46855 30.0292 9.6869 30.3989 9.59383 30.7616Z" fill="#298C80"/>
</svg>
