<svg width="38" height="38" viewBox="0 0 38 38" fill="none" xmlns="http://www.w3.org/2000/svg">
<g clip-path="url(#clip0_1599_918)">
<path d="M17.4154 17.4167C20.9131 17.4167 23.7487 14.5811 23.7487 11.0833C23.7487 7.58553 20.9131 4.75 17.4154 4.75C13.9176 4.75 11.082 7.58553 11.082 11.0833C11.082 14.5811 13.9176 17.4167 17.4154 17.4167Z" fill="#298C80"/>
<path d="M5.13895 30.115C6.53391 24.6356 11.5011 20.583 17.4148 20.583C23.3285 20.583 28.2956 24.6356 29.6905 30.115C30.1221 31.81 28.6637 33.2497 26.9148 33.2497H7.91477C6.16587 33.2497 4.70749 31.81 5.13895 30.115Z" fill="#298C80"/>
<path d="M28.5 12.666C29.3745 12.666 30.0833 13.3749 30.0833 14.2493V15.8327H31.6667C32.5411 15.8327 33.25 16.5415 33.25 17.416C33.25 18.2905 32.5411 18.9993 31.6667 18.9993H30.0833V20.5827C30.0833 21.4572 29.3745 22.166 28.5 22.166C27.6255 22.166 26.9167 21.4572 26.9167 20.5827V18.9993H25.3333C24.4589 18.9993 23.75 18.2905 23.75 17.416C23.75 16.5415 24.4589 15.8327 25.3333 15.8327H26.9167V14.2493C26.9167 13.3749 27.6255 12.666 28.5 12.666Z" fill="#298C80"/>
</g>
<defs>
<clipPath id="clip0_1599_918">
<rect width="38" height="38" fill="white"/>
</clipPath>
</defs>
</svg>
