<svg width="38" height="38" viewBox="0 0 38 38" fill="none" xmlns="http://www.w3.org/2000/svg">
<path d="M15.6484 28.8019H17.8837V32.1548H15.6484V28.8019Z" fill="#2D9B8E"/>
<path d="M20.1172 26.5664H22.3525V32.1546H20.1172V26.5664Z" fill="#2D9B8E"/>
<path d="M27.9423 5.58789V10.0585H10.06V5.58789H6.70703V37.9997H31.2953V5.58789H27.9423ZM12.2953 19.8604H15.1853L17.4206 17.6251H19.7665L21.9407 16.1032L19.8478 15.58L20.3899 13.4114L25.8944 14.7875L24.5677 21.4208L22.3758 20.9824L22.9468 18.1274L20.4712 19.8604H18.3465L16.1112 22.0957H12.2953V19.8604ZM26.8247 34.3898C25.165 34.3898 13.7226 34.3898 11.1776 34.3898V32.1545H13.4129V26.5663H17.8835V24.331H24.5894V32.1545H26.8247V34.3898Z" fill="#2D9B8E"/>
<path d="M25.7086 3.35294H22.3557C22.3557 1.50115 20.8546 0 19.0028 0C17.151 0 15.6498 1.50115 15.6498 3.35294H12.2969V7.82353H25.7086V3.35294Z" fill="#2D9B8E"/>
</svg>
