<svg width="38" height="38" viewBox="0 0 38 38" fill="none" xmlns="http://www.w3.org/2000/svg">
<g clip-path="url(#clip0_1598_503)">
<path d="M21.0399 10.8835L18.8992 13.4479C18.5068 13.9154 17.8077 13.9817 17.3348 13.5914L17.3304 13.5882C16.8553 13.1924 16.1552 13.2566 15.7627 13.7295C15.3681 14.2013 15.4322 14.9036 15.904 15.2972L19.0886 17.9557C19.0998 17.9631 19.113 17.9637 19.1238 17.9716C19.676 18.4293 20.3751 18.3695 20.7708 17.9075L24.4376 13.7203L21.0399 10.8835Z" fill="#2D9B8E"/>
<path d="M37.8069 1.73908C38.1233 1.27374 38.0417 0.646452 37.6189 0.275736C37.196 -0.0949802 36.5643 -0.0917146 36.1436 0.284494L28.918 6.6781C28.232 7.29233 27.1785 7.30866 26.473 6.72048L26.174 6.47044C25.6811 6.05817 24.9834 6.15643 24.6052 6.61071L22.4648 9.1747L31.01 16.3087L33.1504 13.7447C33.544 13.2729 33.4809 12.5716 33.0101 12.177C32.1523 11.4606 31.9784 10.2223 32.6046 9.29709L37.8069 1.73908Z" fill="#2D9B8E"/>
<path d="M27.4455 20.5808L29.5852 18.0175L26.1464 15.1467L22.4627 19.3534C22.213 19.6459 21.914 19.8667 21.5977 20.05L22.7413 21.0048C24.1444 22.1787 26.2527 22.0095 27.4455 20.5808Z" fill="#2D9B8E"/>
<path d="M13.4233 13.459C13.5523 13.0404 13.7633 12.6472 14.0531 12.301C14.9497 11.2205 16.4417 10.8143 17.7799 11.3128L18.2474 10.7528C15.2233 4.4209 8.72753 0.000732422 1.11326 0.000732422C0.497925 0.000732422 0 0.498657 0 1.11399V6.6803H1.11326C6.26455 6.6803 10.858 9.39429 13.4233 13.459Z" fill="#2D9B8E"/>
<path d="M1.11326 13.3598C5.40978 13.3598 8.98031 16.8561 8.98031 21.1526V23.3791C8.98031 31.359 15.4729 38 23.4527 38H32.3588C32.9741 38 33.4721 37.5021 33.4721 36.8867C33.4721 36.2714 32.9741 35.7735 32.3588 35.7735C25.6064 35.7735 20.1129 30.1315 20.1129 23.3791V21.7125L15.2041 17.614C15.491 18.7489 15.6599 19.93 15.6599 21.1526C15.6599 21.768 15.162 22.2659 14.5466 22.2659C13.9313 22.2659 13.4334 21.768 13.4334 21.1526C13.4334 14.4002 7.86564 8.90674 1.11326 8.90674H0V12.2465C0 12.8619 0.497925 13.3598 1.11326 13.3598Z" fill="#2D9B8E"/>
</g>
<defs>
<clipPath id="clip0_1598_503">
<rect width="38" height="38" fill="white"/>
</clipPath>
</defs>
</svg>
