<svg width="38" height="38" viewBox="0 0 38 38" fill="none" xmlns="http://www.w3.org/2000/svg">
<g clip-path="url(#clip0_1598_687)">
<path d="M19.3367 32.9791C18.3877 32.9791 17.6406 33.7262 17.6406 34.6752C17.6406 35.6242 18.3877 36.3713 19.3367 36.3713C20.2857 36.3713 21.0328 35.6242 21.0328 34.6752C21.0328 33.7262 20.2924 32.9791 19.3367 32.9791Z" fill="#2D9B8E"/>
<path d="M32.032 14.383C32.981 14.383 33.7281 13.6359 33.7281 12.6869C33.7281 11.7379 32.981 10.9908 32.032 10.9908C31.083 10.9908 30.3359 11.7379 30.3359 12.6869C30.3359 13.6359 31.083 14.383 32.032 14.383Z" fill="#2D9B8E"/>
<path d="M5.02029 11.8052C5.96928 11.8052 6.71635 11.0581 6.71635 10.1092C6.71635 9.16016 5.96928 8.41309 5.02029 8.41309C4.0713 8.41309 3.32422 9.16016 3.32422 10.1092C3.32422 11.0581 4.0713 11.8052 5.02029 11.8052Z" fill="#2D9B8E"/>
<path d="M18.9308 16.8934C17.7799 16.8934 16.8242 17.8424 16.8242 19.0001C16.8242 20.151 17.7732 21.1067 18.9308 21.1067C20.0817 21.1067 21.0375 20.1577 21.0375 19.0001C21.0307 17.8492 20.0817 16.8934 18.9308 16.8934Z" fill="#2D9B8E"/>
<path d="M24.5661 17.2366C24.4988 17.1693 24.4315 17.0347 24.4315 16.9674V0H13.4339V16.9674C13.4339 17.102 13.3666 17.1693 13.2993 17.2366L0 31.4176L6.58236 38L18.1856 26.3294C18.2529 26.2621 18.3875 26.1948 18.4548 26.1948H19.3365C19.4711 26.1948 19.5384 26.2621 19.6057 26.3294L31.209 38L37.7914 31.4176L24.5661 17.2366ZM18.5221 3.80269C18.5221 3.60078 18.7241 3.39214 18.926 3.39214C19.1279 3.39214 19.3298 3.59405 19.3298 3.80269V13.0974C19.3298 13.2993 19.1279 13.5012 18.926 13.5012C18.7241 13.5012 18.5221 13.2993 18.5221 13.0974V3.80269ZM14.9954 23.5498L5.70067 32.8445C5.63337 32.9118 5.49876 32.9791 5.43146 32.9791C5.29685 32.9791 5.22954 32.9118 5.16224 32.8445C5.02763 32.7099 5.02763 32.4407 5.16224 32.232L14.457 22.9373C14.5916 22.8027 14.8608 22.8027 15.0694 22.9373C15.1973 23.1392 15.1973 23.4084 14.9954 23.5498ZM18.9327 21.9883C17.3039 21.9883 15.9444 20.6288 15.9444 19C15.9444 17.3712 17.3039 16.0117 18.9327 16.0117C20.5615 16.0117 21.921 17.3712 21.921 19C21.921 20.6288 20.5615 21.9883 18.9327 21.9883ZM32.4339 32.9791C32.2993 32.9791 32.232 32.9118 32.1647 32.8445L22.87 23.5498C22.7354 23.4152 22.7354 23.1459 22.87 22.9373C23.0046 22.8027 23.2738 22.8027 23.4825 22.9373L32.7772 32.232C32.9118 32.3666 32.9118 32.6426 32.7772 32.8445C32.6426 32.9118 32.5685 32.9791 32.4339 32.9791Z" fill="#2D9B8E"/>
</g>
<defs>
<clipPath id="clip0_1598_687">
<rect width="37.7981" height="38" fill="white"/>
</clipPath>
</defs>
</svg>
