<svg width="38" height="38" viewBox="0 0 38 38" fill="none" xmlns="http://www.w3.org/2000/svg">
<g clip-path="url(#clip0_1599_1240)">
<path d="M17.2405 30.4756L17.3178 30.0634C13.3419 25.8797 9.2363 23.9935 3.78516 23.8438C3.78664 25.191 3.92105 26.5436 4.18512 27.8647L4.62969 30.0878C8.75262 31.5673 13.0815 31.6964 17.2405 30.4756Z" fill="#2D9B8E"/>
<path d="M33.3678 30.0878L33.8123 27.8647C34.0765 26.5437 34.2109 25.191 34.2124 23.8438C28.7612 23.9935 24.6557 25.8797 20.6797 30.0634L20.757 30.4756C24.9159 31.6964 29.2447 31.5673 33.3678 30.0878Z" fill="#2D9B8E"/>
<path d="M26.4695 33.5331C24.7102 33.5331 22.9517 33.3218 21.2148 32.9016L22.0011 37.0917C22.0999 37.6182 22.5596 37.9996 23.0953 37.9996H30.8753C31.406 37.9996 31.8629 37.6251 31.967 37.1047L32.8689 32.5947C30.7623 33.22 28.6156 33.5331 26.4695 33.5331Z" fill="#2D9B8E"/>
<path d="M11.5323 33.533C9.38577 33.533 7.23936 33.2199 5.13281 32.5947L6.03479 37.1046C6.13885 37.625 6.59574 37.9996 7.1264 37.9996H14.9065C15.4421 37.9996 15.9019 37.6181 16.0007 37.0916L16.787 32.9015C15.05 33.3217 13.2912 33.533 11.5323 33.533Z" fill="#2D9B8E"/>
<path d="M13.4332 20.2597V20.0159C10.4918 19.5434 7.60178 18.695 4.78599 17.4756C4.34795 18.8258 4.05264 20.2108 3.90234 21.6208C8.1841 21.7533 11.4677 22.9238 14.0631 24.4996C13.6491 23.1311 13.4332 21.7015 13.4332 20.2597Z" fill="#2D9B8E"/>
<path d="M24.5674 20.2597C24.5674 21.7015 24.3515 23.1311 23.9375 24.4996C26.5329 22.9239 29.8164 21.7533 34.0982 21.6208C33.9479 20.2108 33.6526 18.8258 33.2146 17.4756C30.3988 18.695 27.5089 19.5434 24.5674 20.0159V20.2597Z" fill="#2D9B8E"/>
<path d="M16.7305 25.2968C17.1118 26.1583 17.5904 26.9781 18.1604 27.736C18.452 28.0234 18.7319 28.3111 19.0004 28.5966C19.2689 28.3111 19.5486 28.0234 19.8403 27.7361C20.4103 26.9781 20.8889 26.1583 21.2703 25.2968C19.807 24.9206 18.1938 24.9206 16.7305 25.2968Z" fill="#2D9B8E"/>
<path d="M21.9869 23.186C22.2155 22.2452 22.3357 21.2765 22.339 20.3008C21.2318 20.4064 20.1183 20.4601 18.9996 20.4601C17.8808 20.4601 16.7673 20.4064 15.6602 20.3008C15.6634 21.2765 15.7837 22.2452 16.0123 23.186C17.931 22.6646 20.0682 22.6645 21.9869 23.186Z" fill="#2D9B8E"/>
<path d="M31.6111 2.66304L31.9491 1.40132C32.1384 0.694317 31.6057 0 30.8737 0H18.9987H7.12366C6.39171 0 5.85889 0.694317 6.0483 1.40132L6.38629 2.66297C7.51145 6.8636 7.22266 11.3703 5.57812 15.3924C14.3078 19.2037 23.6897 19.2037 32.4193 15.3924C30.7746 11.3704 30.4859 6.86368 31.6111 2.66304ZM18.9987 14.25C18.3838 14.25 17.8854 13.7515 17.8854 13.1367C17.8854 12.5219 18.3838 12.0234 18.9987 12.0234C19.6135 12.0234 20.1119 12.5219 20.1119 13.1367C20.1119 13.7515 19.6135 14.25 18.9987 14.25Z" fill="#2D9B8E"/>
</g>
<defs>
<clipPath id="clip0_1599_1240">
<rect width="38" height="38" fill="white"/>
</clipPath>
</defs>
</svg>
