<svg width="38" height="38" viewBox="0 0 38 38" fill="none" xmlns="http://www.w3.org/2000/svg">
<path d="M4.75 13.0625C4.75 11.0948 6.34481 9.5 8.3125 9.5C10.2802 9.5 11.875 11.0948 11.875 13.0625C11.875 15.0302 10.2802 16.625 8.3125 16.625C6.34481 16.625 4.75 15.0302 4.75 13.0625Z" fill="#2D9B8E"/>
<path d="M35.4562 26.737C35.1189 27.2998 34.3898 27.4827 33.8269 27.1443L28.5343 23.9677L21.7358 28.5004H32.0635C32.7202 28.5004 33.251 29.0312 33.251 29.6879C33.251 30.3446 32.7202 30.8754 32.0635 30.8754H17.8135C17.4786 30.8754 17.0915 30.664 16.9193 30.4693L9.0165 21.4383L4.62513 30.2199C4.333 30.8018 3.62407 31.0452 3.0315 30.7507C2.44488 30.4574 2.20738 29.7437 2.50069 29.1571L7.25069 19.6571C7.35163 19.4552 7.50838 19.2866 7.70194 19.1702L13.6394 15.6077C14.0088 15.388 14.4683 15.3833 14.84 15.5946L23.1525 20.3446C23.7213 20.67 23.9196 21.3956 23.5943 21.9644C23.2689 22.5332 22.5433 22.7327 21.9745 22.4061L16.7364 19.4125L21.6361 25.7121L27.2173 21.9905C27.9749 21.487 28.9701 21.4609 29.755 21.9288L35.0501 25.1065C35.6118 25.445 35.7946 26.1741 35.4562 26.737Z" fill="#2D9B8E"/>
<path d="M24.5461 19.6293C24.1982 19.2814 24.1982 18.7173 24.5461 18.3694C24.894 18.0214 25.4581 18.0214 25.806 18.3694L26.604 19.1674C26.952 19.5153 26.952 20.0794 26.604 20.4273C26.2561 20.7752 25.6932 20.7752 25.3441 20.4273L24.5461 19.6293Z" fill="#2D9B8E"/>
<path d="M30.2805 20.4273C29.9325 20.0794 29.9325 19.5153 30.2805 19.1674L31.0785 18.3694C31.4264 18.0214 31.9905 18.0214 32.3384 18.3694C32.6864 18.7173 32.6864 19.2814 32.3384 19.6293L31.5404 20.4273C31.1925 20.7752 30.6284 20.7752 30.2805 20.4273Z" fill="#2D9B8E"/>
<path d="M27.6094 17.8125V16.625C27.6094 16.1334 28.0084 15.7344 28.5 15.7344C28.9916 15.7344 29.3906 16.1334 29.3906 16.625V17.8125C29.3906 18.3041 28.9916 18.7031 28.5 18.7031C28.0084 18.7031 27.6094 18.3041 27.6094 17.8125Z" fill="#2D9B8E"/>
</svg>
