<svg width="38" height="27" viewBox="0 0 38 27" fill="none" xmlns="http://www.w3.org/2000/svg">
<g clip-path="url(#clip0_1598_958)">
<path d="M18.7279 7.03284L17.2812 12.6741V14.5297H19.9354V7.03284H18.7279Z" fill="#2D9B8E"/>
<path d="M21.1411 7.03284L22.5878 12.6741V14.5297H19.9336V7.03284H21.1411Z" fill="#2D9B8E"/>
<path d="M23.363 20.2205H17.4139C16.1046 20.2205 14.829 19.847 13.7245 19.1401C12.6677 18.4636 11.6755 17.9961 10.2003 17.9961H8.17578V17.085H10.2003C11.8082 17.085 12.9639 17.5712 14.2133 18.3726C15.1712 18.9854 16.278 19.31 17.4139 19.31H23.363V20.2205Z" fill="#2D9B8E"/>
<path d="M10.8223 19.3298C10.8223 19.6585 10.5343 19.9246 10.1787 19.9246H6.17096C5.8154 19.9246 5.52734 19.6585 5.52734 19.3298V4.66887C5.52734 4.34026 5.8154 4.0741 6.17096 4.0741H10.1787C10.5343 4.0741 10.8223 4.34026 10.8223 4.66887V19.3298Z" fill="#2D9B8E"/>
<path d="M29.5461 13.3151L27.4046 13.2549L26.9141 10.8116L28.9677 10.3278L29.5461 13.3151Z" fill="#2D9B8E"/>
<path d="M27.5876 12.0974C25.7492 12.2381 24.43 10.3183 24.4341 9.24903C24.4923 9.09961 24.2851 9.02723 24.1309 8.88015C23.7969 8.56029 24.2112 8.25093 24.3544 8.08283C24.519 7.89313 24.6797 7.6655 24.6628 7.48164C24.0267 0.319834 32.7638 0.781528 33.4773 5.59342C33.9614 8.87548 31.5319 11.791 27.5876 12.0974Z" fill="#2D9B8E"/>
<path d="M31.3107 24.7767H24.5144L24.7436 19.1109C24.7436 19.1109 22.85 18.2319 23.5239 16.3682C23.5239 16.3682 25.7958 15.0561 27.3978 13.249C31.8915 11.9666 30.6776 16.2824 30.2452 20.1108C29.878 23.3707 30.4681 23.8166 31.3107 24.7767Z" fill="#2D9B8E"/>
<path d="M4.5299 0L2.32031 21.0226V24.1937H23.3617V21.5199H7.59492V2.88106L4.5299 0Z" fill="#2D9B8E"/>
<path d="M23.966 20.1973C23.966 20.3222 23.8869 20.4232 23.7891 20.4232H16.5714C16.4737 20.4232 16.3945 20.3222 16.3945 20.1973V19.1169C16.3945 18.992 16.4737 18.891 16.5714 18.891H23.7891C23.8869 18.891 23.966 18.992 23.966 19.1169V20.1973Z" fill="#2D9B8E"/>
<path d="M22.5902 7.56043C22.5902 7.91706 22.3021 8.20598 21.9466 8.20598H17.9249C17.5693 8.20598 17.2812 7.91706 17.2812 7.56043V1.68681C17.2812 1.33018 17.5693 1.04126 17.9249 1.04126H21.9466C22.3021 1.04126 22.5902 1.33018 22.5902 1.68681V7.56043Z" fill="#2D9B8E"/>
<path d="M27.8524 24.8322H29.5574L30.2249 16.8206C30.5281 13.1912 28.5682 13.1924 28.5682 13.1924C25.5218 13.5975 27.8524 24.8322 27.8524 24.8322Z" fill="#2D9B8E"/>
<path d="M33.9371 6.01193C33.6566 1.02085 27.9258 1.11365 25.8082 1.91797C23.3501 2.85186 23.1505 5.51638 26.4326 7.24C26.4535 7.25109 26.4739 7.26101 26.4942 7.2721C26.7957 8.96829 27.0651 11.327 26.5367 12.5474C30.79 12.5988 34.1949 10.5985 33.9371 6.01193Z" fill="#2D9B8E"/>
<path d="M24.2406 3.70759C24.2406 3.70759 23.9892 8.11441 28.7691 8.11441C28.7691 8.11441 26.8901 5.77675 27.4598 3.61304L24.2406 3.70759Z" fill="#2D9B8E"/>
<path d="M37 26.2022H0.999464C-0.332573 26.2022 -0.333736 24.1943 0.999464 24.1943H37C38.3326 24.1938 38.3337 26.2022 37 26.2022Z" fill="#2D9B8E"/>
<path d="M22.7195 0H4.53125V2.88106H23.3613C23.3619 2.86706 23.3637 2.85363 23.3637 2.83962V0.645555C23.3631 0.288924 23.075 0 22.7195 0Z" fill="#2D9B8E"/>
<path d="M25.6366 10.1205C25.3724 10.3861 25.149 10.5221 24.9086 10.6003C24.8248 10.4713 24.7509 10.34 24.6875 10.2081C24.8865 10.2081 25.1775 10.1555 25.4242 9.90747L25.6366 10.1205Z" fill="#2D9B8E"/>
<path d="M25.874 7.62991C25.874 7.74782 25.7792 7.84296 25.6616 7.84296C25.5441 7.84296 25.4492 7.74782 25.4492 7.62991C25.4492 7.51201 25.5441 7.41687 25.6616 7.41687C25.7786 7.41687 25.874 7.51201 25.874 7.62991Z" fill="#2D9B8E"/>
</g>
<defs>
<clipPath id="clip0_1598_958">
<rect width="38" height="26.2022" fill="white"/>
</clipPath>
</defs>
</svg>
