<svg width="38" height="38" viewBox="0 0 38 38" fill="none" xmlns="http://www.w3.org/2000/svg">
<g clip-path="url(#clip0_1599_1809)">
<path d="M26.4632 32.5714H29.1775V25.1071C29.1715 21.5102 26.6037 18.4278 23.067 17.7717L23.6349 18.6233C23.7598 18.8091 23.7853 19.0444 23.7028 19.2525L19.6191 28.7753C19.5101 29.0208 19.2673 29.1789 18.9989 29.1789C18.7305 29.1789 18.4876 29.0208 18.3786 28.7753L14.2969 19.2525C14.2144 19.0444 14.2399 18.8091 14.3649 18.6233L14.9328 17.7717C11.3954 18.4268 8.82661 21.5095 8.82031 25.1071V32.5714H11.5346V31.5174C9.72485 29.3856 9.72485 26.2572 11.5346 24.1254V23.0714H12.8917V24.4286C12.8917 24.6423 12.791 24.8434 12.6204 24.9713C12.0097 25.4322 11.5346 26.8817 11.5346 27.8214C11.5346 28.7611 12.0097 30.2113 12.6204 30.6715C12.791 30.7994 12.8917 31.0006 12.8917 31.2143V32.5714H25.106V31.2143C25.106 31.0006 25.2068 30.7994 25.3774 30.6715C25.988 30.2107 26.4632 28.7611 26.4632 27.8214C26.4632 26.8817 25.988 25.4315 25.3774 24.9713C25.2068 24.8434 25.106 24.6423 25.106 24.4286V23.0714H26.4632V24.1254C28.2729 26.2572 28.2729 29.3856 26.4632 31.5174V32.5714Z" fill="#2D9B8E"/>
<path d="M12.8946 9.54075C12.8946 9.88302 12.6391 10.1716 12.2995 10.2137C10.3582 10.4569 8.76514 11.8667 8.28802 13.7643C7.8109 15.6615 8.54746 17.6574 10.1428 18.7896C11.6189 17.3513 13.5536 16.4772 15.6088 16.3202V14.3776C14.3508 13.6513 13.5751 12.3097 13.5731 10.8571V6.78571H14.9303V10.8571C14.9303 12.3561 16.1456 13.5714 17.6446 13.5714H20.3588C21.8578 13.5714 23.0731 12.3561 23.0731 10.8571V6.78571H24.4303V10.8571C24.4283 12.3097 23.6526 13.6513 22.3946 14.3776V16.3202C24.4498 16.4772 26.3845 17.3513 27.8606 18.7896C29.4559 17.6574 30.1925 15.6615 29.7154 13.7643C29.2383 11.8667 27.6452 10.4569 25.7039 10.2137C25.3643 10.1716 25.1088 9.88302 25.1088 9.54075V6.10714C25.1088 2.73417 22.3747 0 19.0017 0C15.6287 0 12.8946 2.73417 12.8946 6.10714V9.54075ZM16.966 8.82143C16.5912 8.82143 16.2874 8.5176 16.2874 8.14286C16.2874 7.76812 16.5912 7.46429 16.966 7.46429C17.3407 7.46429 17.6446 7.76812 17.6446 8.14286C17.6446 8.5176 17.3407 8.82143 16.966 8.82143ZM21.0374 8.82143C20.6627 8.82143 20.3588 8.5176 20.3588 8.14286C20.3588 7.76812 20.6627 7.46429 21.0374 7.46429C21.4122 7.46429 21.716 7.76812 21.716 8.14286C21.716 8.5176 21.4122 8.82143 21.0374 8.82143ZM14.2517 4.46505C14.7132 4.4571 15.1662 4.5903 15.5499 4.84708C15.9107 5.09757 16.3891 5.09757 16.7503 4.84708C17.5408 4.33749 18.5564 4.33749 19.3469 4.84708C19.5202 4.97597 19.732 5.04224 19.9477 5.03495C20.1637 5.04124 20.3757 4.97498 20.5494 4.84642C21.3416 4.33782 22.3571 4.33782 23.149 4.84642C23.3233 4.97498 23.5353 5.04157 23.7517 5.03495V6.39209C23.2898 6.39971 22.8366 6.26685 22.4522 6.01073C22.0901 5.75924 21.6093 5.75924 21.2471 6.01073C20.4556 6.51965 19.4397 6.51965 18.6482 6.01073C18.2877 5.76024 17.8092 5.76024 17.4484 6.01073C16.6578 6.52032 15.6423 6.52032 14.8514 6.01073C14.6788 5.88151 14.4674 5.81524 14.2517 5.8222V4.46505Z" fill="#2D9B8E"/>
<path d="M3.39453 36.6428H34.6088V38H3.39453V36.6428Z" fill="#2D9B8E"/>
<path d="M0 33.9286H38V35.2857H0V33.9286Z" fill="#2D9B8E"/>
<path d="M22.31 19.0795L21.6658 18.113L19.9688 20.2342L21.4144 21.3187L22.31 19.0795Z" fill="#2D9B8E"/>
<path d="M17.6434 14.9285C17.4158 14.9272 17.1888 14.9067 16.9648 14.8676V16.726L19.0006 19.2706L21.0363 16.726V14.8676C20.8123 14.9067 20.5853 14.9272 20.3577 14.9285H17.6434Z" fill="#2D9B8E"/>
<path d="M15.6914 19.0795L16.587 21.3187L18.0326 20.2342L16.3355 18.113L15.6914 19.0795Z" fill="#2D9B8E"/>
<path d="M17.125 22.6105L19 26.8294L20.875 22.6105L19 21.2053L17.125 22.6105Z" fill="#2D9B8E"/>
</g>
<defs>
<clipPath id="clip0_1599_1809">
<rect width="38" height="38" fill="white"/>
</clipPath>
</defs>
</svg>
