<svg width="155" height="32" viewBox="0 0 155 32" fill="none" xmlns="http://www.w3.org/2000/svg">
<g clip-path="url(#clip0_124_80)">
<path d="M31.0766 9.72092H23.8303V31.5587H31.0766V9.72092Z" fill="#BABABE"/>
<path d="M39.8194 1.18231H32.5752V31.5587H39.8194V1.18231Z" fill="#BABABE"/>
<path d="M48.5628 1.18231H41.3186V31.5587H48.5628V1.18231Z" fill="#BABABE"/>
<path fill-rule="evenodd" clip-rule="evenodd" d="M126.538 11.9731V9.72094H119.293V31.5588H126.538V21.151C126.538 18.4734 127.95 17.0291 130.525 17.0291H131.382V9.50873C129.196 9.59395 127.609 10.2737 126.538 11.9731Z" fill="#BABABE"/>
<path fill-rule="evenodd" clip-rule="evenodd" d="M27.4527 0C25.1338 0 23.2517 1.86442 23.2517 4.16371C23.2517 6.46299 25.1338 8.32808 27.4527 8.32808C29.7736 8.32808 31.6543 6.46299 31.6543 4.16371C31.6543 1.86442 29.7736 0 27.4527 0Z" fill="#BABABE"/>
<path fill-rule="evenodd" clip-rule="evenodd" d="M110.547 11.3836C109.528 10.2828 107.159 9.37433 105.36 9.37433C99.8877 9.37433 95.9624 12.9492 95.0015 18.2633C93.9538 13.1652 89.4701 9.24262 84.0022 9.24262C78.4821 9.24262 73.9622 13.211 72.9741 18.4047C72.0149 13.0065 67.7299 9.42856 62.4161 9.42856C60.4443 9.42856 58.8144 9.85366 57.399 10.8298V1.18604H50.1548V31.5621H57.2719V29.5646C58.9867 31.137 60.8297 31.8592 63.1027 31.8592C67.9968 31.8592 72.1172 28.0627 72.9986 22.8295C74.037 27.9505 78.4946 31.8434 84.0026 31.8434C89.4633 31.8434 93.8427 28.033 94.9573 23.0434C95.8788 28.4935 100.236 31.9027 105.445 31.9027C107.244 31.9027 109.218 31.3061 110.547 30.3303V31.5621H117.791V22.0049C117.791 21.6128 117.788 21.2308 117.78 20.8576C117.788 20.4844 117.791 20.1028 117.791 19.7107V9.75799H110.547V11.3836ZM61.6448 24.9088C59.3246 24.9088 57.4439 23.0444 57.4439 20.7444C57.4439 18.4458 59.3246 16.5817 61.6448 16.5817C63.9644 16.5817 65.8458 18.4458 65.8458 20.7444C65.8462 23.0444 63.9647 24.9088 61.6448 24.9088ZM84.0022 24.5753C81.6833 24.5753 79.8006 22.7096 79.8006 20.411C79.8006 18.1127 81.6833 16.2483 84.0022 16.2483C86.3218 16.2483 88.2032 18.1127 88.2032 20.411C88.2035 22.7092 86.3228 24.5753 84.0022 24.5753ZM105.773 24.7074C103.452 24.7074 101.573 22.8416 101.573 20.543C101.573 18.2447 103.452 16.3803 105.773 16.3803C108.095 16.3803 109.974 18.2447 109.974 20.543C109.974 22.8416 108.095 24.7074 105.773 24.7074Z" fill="#BABABE"/>
<path fill-rule="evenodd" clip-rule="evenodd" d="M147.459 1.17896V10.8231C146.046 9.84624 144.417 9.42182 142.443 9.42182C136.399 9.42182 131.683 14.052 131.683 20.7229C131.683 27.0097 136.227 31.8531 141.759 31.8531C144.03 31.8531 145.873 31.1303 147.589 29.5589V31.5557H154.706V1.17896H147.459ZM143.192 24.8549C140.875 24.8549 138.993 22.9891 138.993 20.6922C138.993 18.3923 140.874 16.5272 143.192 16.5272C145.513 16.5272 147.394 18.3923 147.394 20.6922C147.394 22.9891 145.513 24.8549 143.192 24.8549Z" fill="#BABABE"/>
<path fill-rule="evenodd" clip-rule="evenodd" d="M12.2613 9.42822C10.2888 9.42822 8.66028 9.85332 7.24421 10.8295V1.18604H0V31.5621H7.1164V29.5646C8.83126 31.137 10.6749 31.8592 12.9479 31.8592C18.4776 31.8592 23.0219 27.0144 23.0219 20.7276C23.0219 14.0591 18.306 9.42822 12.2613 9.42822ZM11.4901 24.9088C9.17049 24.9088 7.28908 23.0444 7.28908 20.7444C7.28908 18.4458 9.17049 16.5817 11.4901 16.5817C13.8103 16.5817 15.691 18.4458 15.691 20.7444C15.691 23.0444 13.8103 24.9088 11.4901 24.9088Z" fill="#BABABE"/>
</g>
<defs>
<clipPath id="clip0_124_80">
<rect width="155" height="32" fill="white"/>
</clipPath>
</defs>
</svg>
