<svg width="38" height="38" viewBox="0 0 38 38" fill="none" xmlns="http://www.w3.org/2000/svg">
<g clip-path="url(#clip0_1599_562)">
<path d="M16.1128 27.7017L15.9849 26.6703C15.5036 26.7168 15.0196 26.7287 14.5365 26.7059C13.7204 26.6687 12.9396 26.5418 12.1981 26.3284L12.365 27.6743L9.16793 35.4339C8.77702 36.3826 9.22931 37.4686 10.178 37.8595C11.127 38.2505 12.2128 37.7979 12.6036 36.8494L15.9867 28.6382C16.1088 28.3421 16.1522 28.0195 16.1128 27.7017ZM21.2233 26.8518L20.9286 24.5954C19.8843 25.4732 18.7061 26.0842 17.4191 26.4181L17.4975 27.0181L15.6469 35.7566C15.4344 36.7604 16.0758 37.7467 17.0796 37.9592C18.0835 38.1719 19.0697 37.5303 19.2822 36.5265L21.1986 27.4772C21.2421 27.2717 21.2504 27.0602 21.2233 26.8518ZM34.532 15.779C34.4362 15.268 33.9447 14.9314 33.4332 15.0271L26.1769 16.3878C26.4697 16.9564 26.5594 17.6115 26.4088 18.2599L33.7802 16.8777C34.2913 16.7819 34.6279 16.2899 34.532 15.779Z" fill="#2D9B8E"/>
<path d="M15.9572 6.74248C17.8191 6.74248 19.3284 5.23312 19.3284 3.37124C19.3284 1.50935 17.8191 0 15.9572 0C14.0953 0 12.5859 1.50935 12.5859 3.37124C12.5859 5.23312 14.0953 6.74248 15.9572 6.74248Z" fill="#2D9B8E"/>
<path d="M23.9961 16.0328L18.4407 15.143L16.6089 11.1244L19.0371 14.1095L20.2423 14.3026V10.028C20.2423 8.77039 19.2229 7.75084 17.9651 7.75084H15.7671C13.4806 6.98839 11.587 7.39749 10.3378 7.9286C10.2537 7.96437 10.1718 8.00126 10.0915 8.03881C9.81273 7.40818 9.1821 6.96784 8.4483 6.96784H7.7882V4.95309H8.5292C9.0491 4.95309 9.47059 4.53161 9.47059 4.0117C9.47059 3.4918 9.0491 3.07031 8.5292 3.07031H5.16449C4.64459 3.07031 4.2231 3.4918 4.2231 4.0117C4.2231 4.53161 4.64451 4.95309 5.16449 4.95309H5.90549V6.96784H5.24531C4.25338 6.96784 3.44922 7.772 3.44922 8.76393V17.209C3.44922 18.1939 4.24217 18.9934 5.22446 19.0046C5.23143 19.0046 5.23834 19.0051 5.24531 19.0051H6.31302C6.56314 19.7046 6.95249 20.601 7.53504 21.5081C9.20087 24.102 11.6378 25.544 14.5823 25.6783C17.6559 25.818 20.1321 24.4654 21.8699 22.0662C22.3139 21.4531 22.6616 20.8371 22.929 20.2854L20.9686 19.9714C19.9831 21.7426 18.065 23.9524 14.6681 23.7975C12.3456 23.6916 10.4892 22.5953 9.15056 20.5392C8.80574 20.0096 8.53899 19.4792 8.33578 19.0052H8.4483C8.77456 19.0052 9.08019 18.9177 9.34397 18.7656C9.88198 18.4553 10.2445 17.8747 10.2445 17.209V10.0922C10.6157 9.86318 11.0826 9.63118 11.6315 9.46352L11.625 21.7118C12.4276 22.2954 13.4412 22.7122 14.715 22.7703C16.9616 22.872 18.7049 21.7412 19.8916 19.7988L16.8888 19.3178C15.6028 19.1119 14.8613 18.0652 14.7492 17.5039L13.8196 12.8481L15.8423 17.2857C15.9536 17.5297 16.1234 17.7425 16.3368 17.905C16.5501 18.0675 16.8003 18.1747 17.0651 18.2172L23.4815 19.245C24.3581 19.3855 25.2013 18.7927 25.3447 17.8962C25.4869 17.0091 24.8831 16.1749 23.9961 16.0328Z" fill="#2D9B8E"/>
</g>
<defs>
<clipPath id="clip0_1599_562">
<rect width="38" height="38" fill="white"/>
</clipPath>
</defs>
</svg>
