<svg width="38" height="38" viewBox="0 0 38 38" fill="none" xmlns="http://www.w3.org/2000/svg">
<g clip-path="url(#clip0_1599_571)">
<path d="M18.7515 13.9524C19.109 14.0926 19.4597 13.7494 19.3412 13.3843C18.5279 10.878 15.5832 9.94309 12.8457 12.1667C11.4058 13.3364 10.8647 13.585 10.8511 13.5912C11.8003 14.5403 12.8848 17.7252 15.2516 18.0775C17.8587 18.5501 20.1662 15.9851 18.2783 14.8114C17.0368 14.0395 15.575 13.5912 14.008 13.5912C15.6508 13.2209 17.2907 13.3797 18.7515 13.9524ZM30.5572 12.1665C25.8318 8.32818 22.8183 14.3812 24.6915 13.7812C26.0219 13.3551 27.4763 13.2622 28.9353 13.5911C26.4634 13.5911 24.1848 14.7239 22.6656 16.5678C22.7904 13.6701 22.9791 11.8563 23.1979 10.5071C24.4606 10.4637 26.1435 9.44403 27.0677 7.65984C28.6609 4.80846 27.9221 1.88484 27.6843 0.0400391C26.4393 1.25236 21.001 -0.168161 18.845 3.5262C17.8927 5.15814 18.1695 7.144 19.1713 8.59725C19.4885 9.05731 20.2467 8.83656 20.2684 8.27825C20.3625 5.84954 21.5712 4.01457 23.8246 2.99824C22.8135 4.30839 22.1495 5.77519 21.8065 7.29125C21.2734 9.65291 20.7165 11.2021 20.5121 18.7294C20.4913 19.4928 21.1097 20.1247 21.8733 20.1151C22.4261 20.1082 22.8997 19.7574 23.1123 19.2471C23.4356 18.4709 23.9619 17.6676 24.8182 16.9316C25.632 17.8311 26.8704 18.3097 28.1517 18.0774C30.5084 17.7267 31.6082 14.5348 32.5521 13.591C32.5383 13.5849 31.9971 13.3363 30.5572 12.1665ZM37.5036 21.5455C36.0263 20.5432 34.4186 21.2574 33.6802 21.6837L24.4143 28.4655L18.9889 28.4667L17.6325 27.1103H22.6151C24.1136 27.1103 25.7918 26.1343 25.7918 24.397C25.7918 22.5526 24.1136 21.6837 22.6151 21.6837H20.7479C19.3609 21.6837 17.74 21.8074 16.5971 21.1956C15.5112 20.6431 14.2608 20.3287 12.9261 20.3287C10.6848 20.3287 8.67886 21.2222 7.30428 22.6312L0 29.8218L8.1381 37.9599L10.8508 33.8909H23.6697C25.0368 33.8909 26.3564 33.3894 27.3784 32.4815L37.5963 23.4045C38.1644 22.9 38.1323 21.9721 37.5036 21.5455Z" fill="#2D9B8E"/>
</g>
<defs>
<clipPath id="clip0_1599_571">
<rect width="38" height="38" fill="white"/>
</clipPath>
</defs>
</svg>
