<svg width="38" height="38" viewBox="0 0 38 38" fill="none" xmlns="http://www.w3.org/2000/svg">
<g clip-path="url(#clip0_1599_578)">
<path d="M30.6979 34.2177L28.9552 21.1464H29.0037C29.5155 21.1464 29.9303 20.7316 29.9303 20.2198V1.37754C29.9303 1.05195 29.7601 0.751456 29.4819 0.583825C29.3453 0.501336 29.1896 0.455582 29.0301 0.451006C28.8705 0.446429 28.7125 0.483185 28.5714 0.557706C24.9579 2.46434 22.6959 6.2132 22.6959 10.3V18.2448C22.6959 19.8471 23.9953 21.1463 25.5977 21.1463H25.8174L24.0747 34.2176C24.0121 34.6894 24.0508 35.1691 24.1883 35.6247C24.3258 36.0803 24.559 36.5013 24.8722 36.8596C25.1859 37.2177 25.5725 37.5046 26.0061 37.7013C26.4397 37.8979 26.9102 37.9997 27.3863 37.9999C27.8624 37.9997 28.333 37.8979 28.7665 37.7013C29.2001 37.5046 29.5867 37.2177 29.9005 36.8596C30.2137 36.5013 30.4468 36.0803 30.5843 35.6247C30.7218 35.1691 30.7606 34.6894 30.6979 34.2177ZM16.1772 0C15.4741 0 14.9052 0.568933 14.9052 1.27189V8.37697H13.6332V1.27189C13.6332 0.568933 13.0643 0 12.3612 0C11.6582 0 11.0894 0.568933 11.0894 1.27189V8.37697H9.81738V1.27189C9.8173 0.568933 9.24837 0 8.54541 0C7.84229 0 7.27344 0.568933 7.27344 1.27189V12.7519C7.27344 14.6387 8.80247 16.1678 10.6893 16.1678H10.9712L8.96651 34.2077C8.91381 34.685 8.96223 35.1681 9.1086 35.6255C9.25497 36.0828 9.49602 36.5043 9.81605 36.8623C10.1365 37.2202 10.5288 37.5065 10.9674 37.7026C11.4059 37.8986 11.8809 38 12.3613 38C12.8417 38 13.3167 37.8986 13.7553 37.7026C14.1939 37.5065 14.5862 37.2202 14.9066 36.8623C15.2267 36.5043 15.4677 36.0829 15.6141 35.6255C15.7605 35.1681 15.8089 34.685 15.7561 34.2077L13.7513 16.1678H14.0333C15.9201 16.1678 17.4492 14.6388 17.4492 12.752V1.27189C17.4491 0.568933 16.8802 0 16.1772 0Z" fill="#2D9B8E"/>
</g>
<defs>
<clipPath id="clip0_1599_578">
<rect width="38" height="38" fill="white"/>
</clipPath>
</defs>
</svg>
