<svg width="38" height="38" viewBox="0 0 38 38" fill="none" xmlns="http://www.w3.org/2000/svg">
<path fill-rule="evenodd" clip-rule="evenodd" d="M30.9035 32.0477C22.7914 23.2008 17.6258 16.8848 14.6793 12.1793C12.8387 9.24766 11.8367 6.91719 11.6215 5.00234C10.2039 7.55547 9.42461 10.398 9.34297 13.3594C9.31328 14.4578 10.1891 16.9961 14.5457 22.8445C17.5813 26.9191 21.3664 31.3574 24.1273 34.6008C25.3 35.9813 26.2871 37.1316 26.9922 38L30.9035 32.0477ZM18.175 29.5168C16.6535 31.35 15.184 33.0793 13.8852 34.6008C12.7125 35.9813 11.7254 37.1316 11.0203 38L7.10156 32.0477C9.80313 29.0863 11.0129 27.6094 13.143 25.0191C13.3805 24.7297 13.6328 24.4254 13.8926 24.1062C15.184 25.8281 16.6387 27.6465 18.175 29.5168ZM18.9988 6.86523C17.2324 6.86523 15.4883 7.39961 14.0187 8.37187C12.8684 5.93008 12.5789 4.09688 13.1281 2.70898C14.5977 0.987109 16.7277 0 18.9988 0C21.2699 0 23.4 0.987109 24.8695 2.70898C25.1961 3.58477 25.0773 5.19531 23.6152 8.1418C22.2199 7.30312 20.6316 6.86523 18.9988 6.86523ZM19.5629 16.8773C22.1828 13.3074 24.0605 10.2941 25.1367 7.91914C25.6934 6.69453 26.0496 5.62578 26.2055 4.69063C27.7344 7.31797 28.5805 10.2793 28.6621 13.3668C28.6918 14.4207 27.8828 16.818 23.9121 22.2359C22.2645 20.284 20.8172 18.5027 19.5629 16.8773Z" fill="#2D9B8E"/>
</svg>
