<svg width="38" height="38" viewBox="0 0 38 38" fill="none" xmlns="http://www.w3.org/2000/svg">
<path d="M30.619 25.4596C30.6082 25.9534 30.5627 26.4459 30.4828 26.9334C29.6636 31.9377 25.3097 35.7688 20.0773 35.7688H18.2403C13.0078 35.7688 8.65393 31.9377 7.83471 26.9334C7.75486 26.4459 7.70932 25.9534 7.69844 25.4596H5.46728C5.47633 25.9582 5.51403 26.45 5.57898 26.9334C6.41691 33.1727 11.7751 38 18.2402 38H20.0772C26.5424 38 31.9005 33.1727 32.7385 26.9333C32.8041 26.4446 32.8414 25.9525 32.8502 25.4595H30.619V25.4596ZM34.7196 23.2294V22.3178C34.7196 20.4329 33.1861 18.8994 31.3013 18.8994H6.69857C4.81371 18.8994 3.28027 20.4329 3.28027 22.3178V23.2294H34.7196ZM19 0C11.3613 0 5.14673 6.21456 5.14673 13.8532V16.9651C5.65094 16.8183 6.17342 16.7438 6.69857 16.7437H31.3013C31.8264 16.7438 32.3489 16.8183 32.8531 16.9651V13.8532C32.8532 6.21456 26.6386 0 19 0Z" fill="#26524E"/>
</svg>
