<svg width="21" height="12" viewBox="0 0 21 12" fill="none" xmlns="http://www.w3.org/2000/svg">
<path d="M0.375893 11.0152C0.626209 11.2657 0.922934 11.3909 1.26579 11.3909L18.9843 11.3909C19.3273 11.3909 19.6238 11.2657 19.8743 11.0152C20.1248 10.7644 20.25 10.4679 20.25 10.1251C20.25 9.78236 20.1248 9.48585 19.8743 9.23525L11.015 0.375969C10.7642 0.125443 10.4677 5.72205e-06 10.125 5.72205e-06C9.78228 5.72205e-06 9.48549 0.125443 9.23517 0.375969L0.375893 9.23532C0.125643 9.48585 -1.90735e-06 9.78236 -1.90735e-06 10.1251C-1.90735e-06 10.4679 0.125643 10.7644 0.375893 11.0152Z" fill="#2D9B8E"/>
</svg>
