<svg width="14" height="9" viewBox="0 0 14 9" fill="none" xmlns="http://www.w3.org/2000/svg">
<path d="M7.1575 8.48306C7.42876 8.45487 7.68528 8.33676 7.89173 8.1452L13.4359 3.0227C13.7149 2.78171 13.8912 2.42894 13.9247 2.04526C13.958 1.66154 13.8457 1.27984 13.6131 0.98702C13.3807 0.69422 13.0479 0.515563 12.6912 0.491937C12.3343 0.468315 11.9838 0.601716 11.7197 0.861758L7.03368 5.19286L2.34762 0.861758C2.08353 0.601908 1.73309 0.468509 1.37621 0.492135C1.01949 0.515559 0.68672 0.694218 0.454298 0.987019C0.221706 1.27982 0.10937 1.66173 0.142701 2.04546C0.176218 2.42918 0.352457 2.78172 0.631447 3.0227L6.17563 8.1452C6.4469 8.39671 6.80124 8.5186 7.15737 8.48326L7.1575 8.48306Z" fill="#6C6C6C"/>
</svg>
