<svg width="50" height="50" viewBox="0 0 50 50" fill="none" xmlns="http://www.w3.org/2000/svg">
<g clip-path="url(#clip0_881_8850)">
<path d="M25 -0.000335693C11.2145 -0.000335693 0 11.2141 0 24.9997C0 38.7852 11.2145 49.9997 25 49.9997C38.7855 49.9997 50 38.7852 50 24.9997C50 11.2141 38.7855 -0.000335693 25 -0.000335693Z" fill="#EF2020"/>
<path d="M34.2064 31.2599C35.0208 32.0748 35.0208 33.3913 34.2064 34.206C34.0131 34.3998 33.7835 34.5534 33.5306 34.6582C33.2778 34.7629 33.0068 34.8167 32.7331 34.8164C32.1999 34.8164 31.6666 34.6123 31.2603 34.206L25 27.9454L18.7398 34.2061C18.5465 34.3998 18.317 34.5535 18.0642 34.6582C17.8114 34.763 17.5404 34.8167 17.2668 34.8165C16.9932 34.8167 16.7222 34.763 16.4694 34.6582C16.2166 34.5535 15.9869 34.3998 15.7937 34.2061C14.9792 33.3913 14.9792 32.0748 15.7937 31.2599L22.0543 24.9997L15.7936 18.7394C14.9791 17.9246 14.9791 16.6081 15.7936 15.7933C16.6084 14.9789 17.9249 14.9789 18.7398 15.7933L25 22.054L31.2603 15.7932C32.0751 14.9788 33.3916 14.9788 34.2064 15.7932C35.0208 16.6081 35.0208 17.9246 34.2064 18.7394L27.9457 24.9997L34.2064 31.2599Z" fill="#FAFAFA"/>
</g>
<defs>
<clipPath id="clip0_881_8850">
<rect width="50" height="50" fill="white" transform="translate(0 -0.000335693)"/>
</clipPath>
</defs>
</svg>
