<svg width="24" height="25" viewBox="0 0 24 25" fill="none" xmlns="http://www.w3.org/2000/svg">
<path d="M16.5 6.48926H13.5C12.9477 6.48926 12.5 6.93698 12.5 7.48926V10.4893H16.5C16.6137 10.4867 16.7216 10.5397 16.7892 10.6312C16.8568 10.7227 16.8758 10.8413 16.84 10.9493L16.1 13.1493C16.0318 13.3512 15.8431 13.4877 15.63 13.4893H12.5V20.9893C12.5 21.2654 12.2761 21.4893 12 21.4893H9.5C9.22386 21.4893 9 21.2654 9 20.9893V13.4893H7.5C7.22386 13.4893 7 13.2654 7 12.9893V10.9893C7 10.7132 7.22386 10.4893 7.5 10.4893H9V7.48926C9 5.28012 10.7909 3.48926 13 3.48926H16.5C16.7761 3.48926 17 3.71312 17 3.98926V5.98926C17 6.2654 16.7761 6.48926 16.5 6.48926Z" fill="black"/>
</svg>
