<svg width="87" height="22" viewBox="0 0 87 22" fill="none" xmlns="http://www.w3.org/2000/svg">
<path fill-rule="evenodd" clip-rule="evenodd" d="M52.9896 6.30278C51.6119 6.30278 50.5065 6.67356 49.3593 7.23782C49.3701 3.98497 49.4118 1.14881 49.4888 0.0757141L42.8035 1.36698V1.96891L43.4555 2.05282C44.3864 2.18043 44.7458 2.72568 44.8554 3.9704C45.065 6.35471 45.0346 19.1543 44.8554 21.2052C46.6549 21.6083 48.6038 21.9198 50.5546 21.9198C55.8599 21.9198 59.0523 18.6416 59.0523 13.4535C59.0523 9.29187 56.4609 6.30278 52.9896 6.30278ZM50.66 20.8604C50.281 20.8604 49.7912 20.7992 49.5195 20.7502C49.4141 19.3129 49.3495 13.3905 49.3564 8.21687C49.9701 8.00947 50.3814 7.96071 50.9172 7.96071C53.1134 7.96071 54.3467 10.4957 54.3524 13.6967C54.36 17.7709 52.8366 20.8604 50.66 20.8604ZM17.6755 6.4592L16.6332 6.74893C15.7228 3.70917 14.2748 1.98949 11.5672 1.98949H8.09588C7.93471 3.92702 7.87296 7.15454 7.88848 10.5144L10.2247 10.44C11.7775 10.3887 12.4282 9.23741 12.8034 7.53008H13.6745V14.6434H12.8034C12.4285 12.9361 11.7778 11.7861 10.2247 11.7332L7.89513 11.6591C7.91919 14.2122 7.98759 16.3843 8.09556 17.6734C8.25357 19.5662 8.76843 20.3965 10.1104 20.5922L11.2959 20.7185V21.5646H0V20.7185L0.934725 20.5922C2.27443 20.3965 2.79087 19.5662 2.94856 17.6734C3.20757 14.5516 3.24905 8.06615 2.94856 4.4403C2.79087 2.5452 2.27475 1.71623 0.934725 1.52055L0 1.39389V0.547193H17.5805L17.6755 6.4592ZM23.2947 6.13401C28.2903 6.13401 30.7734 9.5208 30.7734 13.988C30.7734 18.3497 27.9708 21.9224 22.9739 21.9224C17.976 21.9224 15.4923 18.5356 15.4923 14.0687C15.4923 9.70699 18.2946 6.13401 23.2947 6.13401ZM23.0341 7.10166C20.8249 7.10166 20.2065 10.0885 20.2065 14.0279C20.2065 17.8608 21.1842 20.9544 23.2335 20.9544C25.4415 20.9544 26.0602 17.9669 26.0602 14.0279C26.0602 10.1962 25.0824 7.10166 23.0341 7.10166ZM60.2787 14.1669C60.2736 10.0328 62.8833 6.14287 68.0357 6.14287C72.2274 6.14287 74.2267 9.25039 74.2498 13.3148H64.8997C64.7962 17.0027 66.6634 19.7103 70.2373 19.7103C71.8098 19.7103 72.6581 19.3208 73.607 18.5945L74.0456 19.121C73.0098 20.5589 70.8459 21.9224 67.9721 21.9224C63.4691 21.9224 60.2856 18.7316 60.2787 14.1669ZM64.9358 12.2635L69.6224 12.1629C69.6452 10.0885 69.3134 7.12541 67.6276 7.12541C65.9288 7.12541 64.9754 9.9299 64.9358 12.2635ZM86.2629 10.7848L85.4982 10.9846C84.6844 8.34511 83.4454 7.21977 81.6329 7.21977C80.4253 7.21977 79.5545 8.12473 79.5545 9.44259C79.5545 10.7487 80.5336 11.4377 83.3564 12.5314C85.9674 13.5425 87 14.7036 87 16.8238C87 19.9807 84.5821 21.9243 80.5988 21.9243C78.6888 21.9243 76.5641 21.4974 75.3191 20.9949L75.1855 16.6237L75.9502 16.4233C77.0451 19.4801 78.4697 20.5918 80.3537 20.5918C81.9524 20.5918 82.8444 19.4554 82.8444 18.242C82.8444 17.0641 82.1731 16.3526 79.6229 15.4423C77.2551 14.5966 75.5398 13.5564 75.5398 10.9083C75.5398 8.33625 77.8177 6.13369 81.5781 6.13369C83.3257 6.13369 84.9836 6.43957 86.0941 6.94841L86.2629 10.7848ZM42.1823 10.6642C40.1571 9.30675 37.9792 9.90045 37.5299 10.6379C37.3738 13.0833 37.4118 16.8324 37.5777 18.7167C37.6866 19.9617 38.0454 20.5067 38.9792 20.6359L40.1871 20.7188V21.5649H30.9099V20.7188L31.5603 20.6359C32.4924 20.507 32.8515 19.9617 32.9614 18.7167C33.1431 16.6649 33.1697 12.4019 32.9614 10.0186C32.8515 8.77226 32.4924 8.22669 31.5603 8.09845L30.9099 8.01422V7.41229L37.5723 6.12198L37.497 9.60598C39.0542 6.02445 42.1278 5.54917 43.8146 6.55704L42.1823 10.6642Z" fill="#BABABE"/>
</svg>
