<svg width="144" height="24" viewBox="0 0 144 24" fill="none" xmlns="http://www.w3.org/2000/svg">
<g clip-path="url(#clip0_124_91)">
<path d="M20.475 22.5C17.7 20.85 15.75 18.15 15 14.775C14.55 13.05 14.4 12.825 14.325 14.1C14.25 15.525 13.875 15.75 10.875 15.75H7.5V19.5V23.25H3.75H0V11.625V1.84856e-05H7.875H15.75V3.07502V6.22502L17.25 4.35002C20.55 0.0750186 28.65 -1.34998 33.75 1.42502C37.8 3.52502 39.75 6.97502 39.75 11.925C39.75 16.875 38.025 20.25 34.35 22.5C30.975 24.525 23.775 24.525 20.475 22.5ZM28.8 17.55C29.025 16.875 29.25 14.4 29.25 12C29.25 9.60002 29.025 7.12502 28.8 6.45002C28.2 4.87502 26.55 4.87502 25.95 6.45002C25.125 8.55002 25.5 16.95 26.4 17.85C27.6 19.05 28.275 18.975 28.8 17.55ZM15.15 9.00002L15.525 6.75002H11.475C8.025 6.75002 7.5 6.97502 7.5 8.25002C7.5 9.52502 8.025 9.75002 10.875 9.75002C12.75 9.75002 14.25 10.125 14.25 10.5C14.25 12.15 14.85 11.1 15.15 9.00002Z" fill="#BABABE"/>
<path d="M36.75 22.8C36.75 22.5 38.25 19.875 40.05 16.875L43.35 11.475L40.05 6.3C38.25 3.45 36.75 0.9 36.75 0.6C36.75 0.225 38.775 0 41.25 0C45.3 0 45.825 0.15 46.725 2.025L47.775 3.975L49.125 2.025C50.25 0.225 50.925 0 54.45 0C56.7 0 58.5 0.225 58.5 0.45C58.5 0.675 57.15 3.15 55.425 6C52.05 11.775 51.975 11.4 56.925 18.75C58.2 20.625 59.25 22.35 59.25 22.725C59.25 23.025 57.225 23.25 54.75 23.25C50.475 23.25 50.25 23.175 49.05 20.85L47.85 18.525L46.35 20.85C45 23.025 44.55 23.25 40.8 23.25C38.55 23.25 36.75 23.025 36.75 22.8Z" fill="#BABABE"/>
<path d="M64.5 11.625V0H67.8C71.025 0 71.1 0.075 74.325 5.025L77.625 10.05L77.85 5.025L78.075 0H81H84V11.625V23.25H81.075C78.15 23.25 78 23.1 74.475 17.25L70.875 11.175L70.65 17.25L70.425 23.25H67.5H64.5V11.625Z" fill="#BABABE"/>
<path d="M85.5 11.625V0H93H100.5V2.625V5.25H95.625C91.275 5.25 90.75 5.4 90.75 6.75C90.75 8.025 91.275 8.25 94.5 8.25H98.25V10.875V13.5H94.5C90.975 13.5 90.75 13.65 90.75 15.375C90.75 17.175 90.9 17.25 95.625 17.25H100.5V20.25V23.25H93H85.5V11.625Z" fill="#BABABE"/>
<path d="M106.125 22.35C105.45 20.4 101.25 2.10001 101.25 1.05001C101.25 0.300015 102.225 1.4469e-05 104.55 1.4469e-05H107.85L108.825 5.32501C109.875 11.1 110.4 10.8 111.375 3.97501L111.9 1.4469e-05H115.05H118.2L119.325 5.40001L120.45 10.875L121.5 5.47501L122.475 1.4469e-05H125.475C128.175 1.4469e-05 128.4 0.150015 128.1 1.87501L127.725 3.67501L129.9 1.87501C133.2 -0.974986 138.825 -0.749986 141.825 2.17501C144.675 5.02501 144.6 5.70001 141.3 6.75001C139.05 7.50001 138.45 7.42501 137.25 6.37501C136.5 5.70001 135.45 5.32501 135.075 5.62501C133.5 6.52501 134.325 7.42501 137.475 8.32502C142.275 9.60001 144 11.55 144 15.825C144 18.825 143.7 19.65 141.675 21.3C139.8 22.875 138.6 23.25 135.225 23.25C131.7 23.25 130.8 22.95 128.925 21.075C125.925 18 126.075 16.05 129.375 15.45C131.4 15.075 132.3 15.3 133.425 16.425C134.325 17.325 135.45 17.775 136.125 17.55C138.075 16.8 137.025 15.675 133.125 14.175C128.775 12.525 127.5 11.1 127.425 7.95002C127.425 6.45001 126.825 7.87502 125.925 11.625C122.85 24.075 123.3 23.25 120.075 23.25H117.15L116.25 18.375C115.725 15.675 115.125 13.5 114.825 13.5C114.525 13.5 113.775 15.6 113.175 18.225C112.125 22.875 112.05 22.875 109.275 23.1C107.475 23.25 106.35 23.025 106.125 22.35Z" fill="#BABABE"/>
</g>
<defs>
<clipPath id="clip0_124_91">
<rect width="144" height="24" fill="white"/>
</clipPath>
</defs>
</svg>
