<svg width="26" height="26" viewBox="0 0 26 26" fill="none" xmlns="http://www.w3.org/2000/svg">
<path d="M26 4.06262C26 4.97668 25.2738 5.81965 24.05 6.50012C22.5723 7.3177 20.3684 7.89661 17.8395 8.06926C17.6516 7.97786 17.4637 7.89153 17.2656 7.81536C15.2648 6.97747 12.6039 6.50012 9.75 6.50012C9.32852 6.50012 8.91719 6.51028 8.50586 6.53059L8.45 6.50012C7.22617 5.81965 6.5 4.97668 6.5 4.06262C6.5 1.81809 10.8672 0.00012207 16.25 0.00012207C21.6328 0.00012207 26 1.81809 26 4.06262ZM8.16055 8.18098C8.67852 8.14544 9.21172 8.12512 9.75 8.12512C12.9086 8.12512 15.7117 8.74973 17.4941 9.71965C18.7535 10.4052 19.5 11.2583 19.5 12.1876C19.5 12.3907 19.4645 12.5888 19.3934 12.7818C19.1598 13.4521 18.5301 14.0665 17.616 14.5845C17.6109 14.5896 17.6008 14.5896 17.5957 14.5947C17.5805 14.6048 17.5652 14.6099 17.55 14.62C15.7727 15.6052 12.9391 16.245 9.75 16.245C6.72344 16.245 4.0168 15.6712 2.22422 14.7673C2.12773 14.7216 2.03633 14.6708 1.94492 14.62C0.726172 13.9447 0 13.1017 0 12.1876C0 10.4204 2.71172 8.91223 6.5 8.35872C7.0332 8.28254 7.58672 8.22161 8.16055 8.18098ZM21.125 12.1876C21.125 11.0755 20.5867 10.1615 19.9012 9.4759C21.3383 9.25247 22.6535 8.897 23.7707 8.43489C24.5984 8.08958 25.3703 7.66301 26 7.13997V8.93762C26 9.9177 25.1621 10.8216 23.7758 11.5224C23.0344 11.8982 22.1305 12.2181 21.1148 12.4618C21.1199 12.3704 21.125 12.2841 21.125 12.1927V12.1876ZM19.5 17.0626C19.5 17.9767 18.7738 18.8197 17.55 19.5001C17.4586 19.5509 17.3672 19.5966 17.2707 19.6474C15.4832 20.5513 12.7766 21.1251 9.75 21.1251C6.56094 21.1251 3.72734 20.4853 1.95 19.5001C0.726172 18.8197 0 17.9767 0 17.0626V15.265C0.634766 15.788 1.40156 16.2146 2.2293 16.5599C4.23516 17.3978 6.89609 17.8751 9.75 17.8751C12.6039 17.8751 15.2648 17.3978 17.2707 16.5599C17.6668 16.3974 18.0477 16.2095 18.4082 16.0064C18.718 15.8337 19.0074 15.6407 19.2816 15.4376C19.3578 15.3818 19.4289 15.3208 19.5 15.265V17.0626ZM21.125 17.0626V14.1224C22.0898 13.9091 22.9785 13.64 23.7707 13.3099C24.5984 12.9646 25.3703 12.538 26 12.015V13.8126C26 14.3458 25.7461 14.879 25.2434 15.3818C24.4156 16.2095 22.9582 16.89 21.1148 17.3318C21.1199 17.2454 21.125 17.154 21.125 17.0626ZM9.75 22.7501C12.6039 22.7501 15.2648 22.2728 17.2707 21.4349C18.0984 21.0896 18.8703 20.663 19.5 20.14V21.9376C19.5 24.1822 15.1328 26.0001 9.75 26.0001C4.36719 26.0001 0 24.1822 0 21.9376V20.14C0.634766 20.663 1.40156 21.0896 2.2293 21.4349C4.23516 22.2728 6.89609 22.7501 9.75 22.7501Z" fill="#2D9B8E"/>
</svg>
