<svg width="14" height="9" viewBox="0 0 14 9" fill="none" xmlns="http://www.w3.org/2000/svg">
<path d="M6.90988 0.495453C6.63862 0.523642 6.3821 0.641754 6.17565 0.833314L0.631468 5.95581C0.352467 6.1968 0.176232 6.54957 0.142722 6.93325C0.109389 7.31697 0.221726 7.69868 0.454318 7.9915C0.686726 8.2843 1.01949 8.46295 1.37623 8.48658C1.73313 8.5102 2.08358 8.3768 2.34764 8.11676L7.0337 3.78566L11.7198 8.11676C11.9838 8.37661 12.3343 8.51 12.6912 8.48638C13.0479 8.46296 13.3807 8.2843 13.6131 7.9915C13.8457 7.6987 13.958 7.31678 13.9247 6.93305C13.8912 6.54933 13.7149 6.19679 13.4359 5.95581L7.89175 0.833314C7.62049 0.581804 7.26614 0.459916 6.91002 0.495255L6.90988 0.495453Z" fill="#2D9B8E"/>
</svg>
