<svg width="38" height="38" viewBox="0 0 38 38" fill="none" xmlns="http://www.w3.org/2000/svg">
<path fill-rule="evenodd" clip-rule="evenodd" d="M24.4709 11.195L24.4713 11.6067H15.2197C14.2801 11.6067 13.5161 12.3707 13.5161 13.3104V17.253C13.0944 17.1516 12.6651 17.0727 12.2359 17.0125L12.2406 11.1949H18.647C18.8025 11.1925 18.9509 11.129 19.06 11.0181C19.1691 10.9072 19.2303 10.7579 19.2303 10.6024C19.2303 10.4468 19.1691 10.2975 19.06 10.1866C18.9509 10.0758 18.8025 10.0123 18.647 10.0098H12.7027L14.8007 7.31633V4.86667H19.7984C19.954 4.86421 20.1023 4.80069 20.2114 4.68984C20.3205 4.57898 20.3817 4.42966 20.3817 4.27411C20.3817 4.11855 20.3205 3.96924 20.2114 3.85838C20.1023 3.74752 19.954 3.68401 19.7984 3.68154H14.8638C15.0646 2.96845 15.7215 2.44313 16.4973 2.44313H20.2141C21.1486 2.44313 21.9109 3.20536 21.9109 4.13985V7.31641L24.0089 10.0099H21.3907C21.3128 10.0099 21.2358 10.0252 21.1639 10.055C21.092 10.0848 21.0267 10.1284 20.9717 10.1834C20.9166 10.2385 20.873 10.3038 20.8432 10.3757C20.8134 10.4476 20.7981 10.5246 20.7981 10.6024C20.7981 10.6803 20.8134 10.7573 20.8432 10.8292C20.873 10.9011 20.9166 10.9664 20.9717 11.0214C21.0267 11.0765 21.092 11.1201 21.1639 11.1499C21.2358 11.1797 21.3128 11.195 21.3907 11.195H24.4709ZM2.08429 25.0375H17.294C17.788 25.0375 18.1908 25.4492 18.1908 25.9541V26.5395H6.26599C6.11046 26.542 5.96213 26.6055 5.85301 26.7163C5.74389 26.8272 5.68273 26.9765 5.68273 27.1321C5.68273 27.2876 5.74389 27.4369 5.85301 27.5478C5.96213 27.6587 6.11046 27.7222 6.26599 27.7246H18.1908V30.5646C18.1908 32.2472 16.8481 33.6195 15.2019 33.6195H4.17636C2.53012 33.6195 1.1875 32.2472 1.1875 30.5646V25.954C1.1875 25.4493 1.59036 25.0375 2.08429 25.0375ZM10.0657 18.033C14.0927 18.114 18.0497 19.4258 17.2584 23.6749C17.2472 23.7351 17.2326 23.7933 17.2195 23.8523H2.95346C4.15862 22.1301 6.06545 22.6679 7.78384 22.9127C9.74218 23.1917 12.3151 22.8145 12.3075 20.5769C12.3027 19.1147 10.0721 18.049 10.0657 18.033ZM26.6802 28.9294C26.6989 28.6907 26.7346 28.4537 26.787 28.2202C26.8403 28.2355 26.8954 28.2432 26.9508 28.2431H32.3648C32.522 28.2431 32.6727 28.1807 32.7838 28.0696C32.8949 27.9584 32.9574 27.8077 32.9574 27.6506C32.9574 27.4934 32.8949 27.3427 32.7838 27.2316C32.6727 27.1204 32.522 27.058 32.3648 27.058H27.2044C28.0348 25.4157 29.7377 24.2895 31.7038 24.2895C34.3524 24.2895 36.5239 26.333 36.7274 28.9294C36.7317 28.9803 36.7252 29.0316 36.7086 29.08C36.6919 29.1283 36.6654 29.1727 36.6306 29.2103C36.5959 29.2478 36.5537 29.2777 36.5068 29.2981C36.4599 29.3185 36.4093 29.3289 36.3581 29.3287H27.0495C26.9984 29.3289 26.9478 29.3185 26.9008 29.2981C26.8539 29.2777 26.8118 29.2478 26.777 29.2103C26.7423 29.1727 26.7158 29.1283 26.6991 29.08C26.6824 29.0316 26.676 28.9803 26.6802 28.9294ZM31.8519 3.88327L32.9959 23.0502C32.9974 23.0726 32.9937 23.0951 32.9851 23.1159C32.9765 23.1367 32.9633 23.1553 32.9465 23.1702C32.9296 23.1852 32.9096 23.1961 32.888 23.2021C32.8663 23.2081 32.8435 23.2091 32.8214 23.205C32.0824 23.071 31.3253 23.071 30.5863 23.205C30.5642 23.2091 30.5414 23.2081 30.5197 23.2021C30.498 23.1961 30.478 23.1852 30.4611 23.1703C30.4443 23.1553 30.4311 23.1368 30.4225 23.116C30.4139 23.0951 30.4102 23.0727 30.4117 23.0502L31.5557 3.88327C31.5667 3.69936 31.841 3.69936 31.8519 3.88327ZM27.7804 30.5139V34.9644C27.7779 35.1199 27.7144 35.2682 27.6035 35.3774C27.4927 35.4865 27.3434 35.5476 27.1878 35.5476C27.0323 35.5476 26.8829 35.4865 26.7721 35.3774C26.6612 35.2682 26.5977 35.1199 26.5952 34.9644V30.4471C26.7404 30.4911 26.8931 30.5139 27.0496 30.5139H27.7804V30.5139ZM36.8125 30.447V34.9643C36.81 35.1198 36.7465 35.2682 36.6357 35.3773C36.5248 35.4864 36.3755 35.5476 36.2199 35.5476C36.0644 35.5476 35.9151 35.4864 35.8042 35.3773C35.6934 35.2682 35.6298 35.1198 35.6274 34.9643V30.5138H36.3582C36.5121 30.514 36.6652 30.4915 36.8125 30.447ZM35.3071 30.5139V34.9644C35.3047 35.1199 35.2411 35.2682 35.1303 35.3774C35.0194 35.4865 34.8701 35.5476 34.7146 35.5476C34.559 35.5476 34.4097 35.4865 34.2988 35.3774C34.188 35.2682 34.1245 35.1199 34.122 34.9644V30.5139H35.3071ZM33.8018 30.5139V34.9644C33.7994 35.1199 33.7358 35.2682 33.625 35.3774C33.5141 35.4865 33.3648 35.5476 33.2093 35.5476C33.0537 35.5476 32.9044 35.4865 32.7935 35.3774C32.6827 35.2682 32.6192 35.1199 32.6167 34.9644V30.5139H33.8018ZM32.2964 30.5139V34.9644C32.294 35.1199 32.2305 35.2682 32.1196 35.3774C32.0087 35.4865 31.8594 35.5476 31.7039 35.5476C31.5483 35.5476 31.399 35.4865 31.2881 35.3774C31.1773 35.2682 31.1138 35.1199 31.1113 34.9644V30.5139H32.2964ZM30.7911 30.5139V34.9644C30.7886 35.1199 30.7251 35.2682 30.6142 35.3774C30.5034 35.4865 30.354 35.5476 30.1985 35.5476C30.0429 35.5476 29.8936 35.4865 29.7828 35.3774C29.6719 35.2682 29.6084 35.1199 29.6059 34.9644V30.5139H30.7911ZM29.2858 30.5139V34.9644C29.2833 35.1199 29.2198 35.2682 29.1089 35.3774C28.9981 35.4865 28.8487 35.5476 28.6932 35.5476C28.5376 35.5476 28.3883 35.4865 28.2775 35.3774C28.1666 35.2682 28.1031 35.1199 28.1006 34.9644V30.5139H29.2858ZM15.3236 34.8028V35.4861H4.05472V34.8028C4.09517 34.804 4.13569 34.8047 4.17644 34.8047H15.202C15.2427 34.8047 15.2832 34.804 15.3236 34.8028ZM24.4721 12.7919H15.2197C14.9341 12.7919 14.7013 13.0249 14.7013 13.3104V17.6104C15.1938 17.7931 15.6635 18.0155 16.096 18.2853C18.124 19.5501 18.8588 21.5547 18.4235 23.8919C18.407 23.9798 18.3888 24.0674 18.3689 24.1546C18.6767 24.3433 18.931 24.6079 19.1073 24.923C19.2837 25.238 19.3762 25.5931 19.376 25.9541V30.5648C19.376 30.6006 19.3755 30.6364 19.3747 30.6721H24.4722L24.4721 12.7919ZM19.1763 31.8572H24.3963C24.1676 32.4832 23.5334 32.9354 22.7906 32.9354H18.6593C18.8812 32.602 19.0553 32.239 19.1763 31.8572Z" fill="#26524E"/>
</svg>
