<svg width="16" height="13" viewBox="0 0 16 13" fill="none" xmlns="http://www.w3.org/2000/svg">
<path fill-rule="evenodd" clip-rule="evenodd" d="M0 0.888889C0 0.653141 0.0936505 0.427049 0.260349 0.26035C0.427048 0.0936507 0.653141 0 0.888889 0H15.1111C15.3469 0 15.573 0.0936507 15.7397 0.26035C15.9064 0.427049 16 0.653141 16 0.888889C16 1.12464 15.9064 1.35073 15.7397 1.51743C15.573 1.68413 15.3469 1.77778 15.1111 1.77778H0.888889C0.653141 1.77778 0.427048 1.68413 0.260349 1.51743C0.0936505 1.35073 0 1.12464 0 0.888889ZM0 6.22222C0 5.98647 0.0936505 5.76038 0.260349 5.59368C0.427048 5.42698 0.653141 5.33333 0.888889 5.33333H9.77778C10.0135 5.33333 10.2396 5.42698 10.4063 5.59368C10.573 5.76038 10.6667 5.98647 10.6667 6.22222C10.6667 6.45797 10.573 6.68406 10.4063 6.85076C10.2396 7.01746 10.0135 7.11111 9.77778 7.11111H0.888889C0.653141 7.11111 0.427048 7.01746 0.260349 6.85076C0.0936505 6.68406 0 6.45797 0 6.22222ZM0 11.5556C0 11.3198 0.0936505 11.0937 0.260349 10.927C0.427048 10.7603 0.653141 10.6667 0.888889 10.6667H5.33333C5.56908 10.6667 5.79517 10.7603 5.96187 10.927C6.12857 11.0937 6.22222 11.3198 6.22222 11.5556C6.22222 11.7913 6.12857 12.0174 5.96187 12.1841C5.79517 12.3508 5.56908 12.4444 5.33333 12.4444H0.888889C0.653141 12.4444 0.427048 12.3508 0.260349 12.1841C0.0936505 12.0174 0 11.7913 0 11.5556Z" fill="black"/>
</svg>
