<svg width="24" height="25" viewBox="0 0 24 25" fill="none" xmlns="http://www.w3.org/2000/svg">
<path fill-rule="evenodd" clip-rule="evenodd" d="M16 3.48926H8C5.23858 3.48926 3 5.72784 3 8.48926V16.4893C3 19.2507 5.23858 21.4893 8 21.4893H16C18.7614 21.4893 21 19.2507 21 16.4893V8.48926C21 5.72784 18.7614 3.48926 16 3.48926ZM19.25 16.4893C19.2445 18.2819 17.7926 19.7338 16 19.7393H8C6.20735 19.7338 4.75549 18.2819 4.75 16.4893V8.48926C4.75549 6.69661 6.20735 5.24475 8 5.23926H16C17.7926 5.24475 19.2445 6.69661 19.25 8.48926V16.4893ZM16.75 8.73926C17.3023 8.73926 17.75 8.29154 17.75 7.73926C17.75 7.18698 17.3023 6.73926 16.75 6.73926C16.1977 6.73926 15.75 7.18698 15.75 7.73926C15.75 8.29154 16.1977 8.73926 16.75 8.73926ZM12 7.98926C9.51472 7.98926 7.5 10.004 7.5 12.4893C7.5 14.9746 9.51472 16.9893 12 16.9893C14.4853 16.9893 16.5 14.9746 16.5 12.4893C16.5027 11.295 16.0294 10.1488 15.1849 9.30434C14.3404 8.45985 13.1943 7.9866 12 7.98926ZM9.25 12.4893C9.25 14.0081 10.4812 15.2393 12 15.2393C13.5188 15.2393 14.75 14.0081 14.75 12.4893C14.75 10.9705 13.5188 9.73926 12 9.73926C10.4812 9.73926 9.25 10.9705 9.25 12.4893Z" fill="black"/>
</svg>
