<svg width="20" height="21" viewBox="0 0 20 21" fill="none" xmlns="http://www.w3.org/2000/svg">
<path d="M0.585939 20.5H11.211C11.5346 20.5 11.7969 20.2377 11.7969 19.9141V19.2891C11.7969 18.6418 11.2723 18.1172 10.625 18.1172V17.4167C10.625 16.4891 9.87034 15.7344 8.94276 15.7344H2.85415C1.92657 15.7344 1.17188 16.4891 1.17188 17.4167V18.1172C0.524611 18.1172 0 18.6418 0 19.2891V19.9141C0 20.2376 0.262462 20.5 0.585939 20.5ZM7.33338 13.4041C7.72283 13.9209 8.45768 14.0242 8.97448 13.6346C9.49143 13.2452 9.59459 12.5104 9.20518 11.9934L5.67892 7.31394C5.28935 6.79699 4.55466 6.69382 4.03782 7.08324C3.52087 7.47281 3.41755 8.2075 3.80712 8.72449L7.33338 13.4041ZM15.7564 7.05671C16.146 7.57351 16.8807 7.67683 17.3977 7.28726C17.9145 6.89784 18.0178 6.16316 17.6282 5.64616L14.1019 0.966776C13.7125 0.449822 12.9776 0.346501 12.4608 0.736072C11.944 1.12564 11.8407 1.86033 12.2303 2.37733L15.7564 7.05671ZM13.1861 10.4609C14.0521 9.80832 14.7023 8.99793 15.109 8.14464L11.0059 2.69971C10.0736 2.85549 9.11545 3.25694 8.24924 3.90971C7.38314 4.56233 6.73295 5.37272 6.3263 6.22585L10.4294 11.6711C11.3617 11.5153 12.3198 11.1137 13.1861 10.4609ZM14.7682 10.6135C14.4954 10.8915 14.2081 11.1581 13.8913 11.3969C13.5744 11.6356 13.2389 11.8383 12.8966 12.0241L13.6606 13.038L15.5324 11.6276L14.7682 10.6135ZM16.2377 12.5634L14.3659 13.9738L17.8922 18.6534C18.2818 19.1704 19.0165 19.2735 19.5333 18.8841C20.0502 18.4946 20.1534 17.7599 19.764 17.2429L16.2377 12.5634Z" fill="#1B5D55"/>
</svg>
