<svg width="24" height="25" viewBox="0 0 24 25" fill="none" xmlns="http://www.w3.org/2000/svg">
<path fill-rule="evenodd" clip-rule="evenodd" d="M5 3.48926H19C20.1046 3.48926 21 4.38469 21 5.48926V19.4893C21 20.5939 20.1046 21.4893 19 21.4893H5C3.89543 21.4893 3 20.5939 3 19.4893V5.48926C3 4.38469 3.89543 3.48926 5 3.48926ZM8 18.4893C8.27614 18.4893 8.5 18.2654 8.5 17.9893V10.9893C8.5 10.7132 8.27614 10.4893 8 10.4893H6.5C6.22386 10.4893 6 10.7132 6 10.9893V17.9893C6 18.2654 6.22386 18.4893 6.5 18.4893H8ZM7.25 9.48926C6.42157 9.48926 5.75 8.81769 5.75 7.98926C5.75 7.16083 6.42157 6.48926 7.25 6.48926C8.07843 6.48926 8.75 7.16083 8.75 7.98926C8.75 8.81769 8.07843 9.48926 7.25 9.48926ZM17.5 18.4893C17.7761 18.4893 18 18.2654 18 17.9893V13.3893C18.0325 11.8001 16.8576 10.4438 15.28 10.2493C14.177 10.1485 13.1083 10.6637 12.5 11.5893V10.9893C12.5 10.7132 12.2761 10.4893 12 10.4893H10.5C10.2239 10.4893 10 10.7132 10 10.9893V17.9893C10 18.2654 10.2239 18.4893 10.5 18.4893H12C12.2761 18.4893 12.5 18.2654 12.5 17.9893V14.2393C12.5 13.4109 13.1716 12.7393 14 12.7393C14.8284 12.7393 15.5 13.4109 15.5 14.2393V17.9893C15.5 18.2654 15.7239 18.4893 16 18.4893H17.5Z" fill="black"/>
</svg>
