<svg width="38" height="38" viewBox="0 0 38 38" fill="none" xmlns="http://www.w3.org/2000/svg">
<g clip-path="url(#clip0_832_331)">
<path d="M38 9.26251V26.3031C38 28.7375 36.3969 30.875 34.0813 31.5875H32.1219V30.4H33.8438C35.625 29.8656 36.8125 28.1438 36.8125 26.3031V9.26251C36.8125 8.13438 36.3969 7.00626 35.5656 6.23438C34.7344 5.40313 33.6656 4.98751 32.5375 4.98751C30.4594 4.98751 28.6187 6.53126 28.2625 8.60938V10.3906H27.075V8.55001C27.4312 5.87813 29.8062 3.85938 32.5375 3.85938C34.0219 3.85938 35.3875 4.45313 36.3969 5.46251C37.4062 6.41251 38 7.77813 38 9.26251ZM8.25312 30.9938V32.1813H6.47187C4.57187 32.0625 3.14688 30.5188 3.14688 28.6781V20.6031C2.19688 20.3063 1.54375 19.475 1.54375 18.4656V11.9344C1.54375 10.925 2.25625 10.0344 3.14688 9.79688V6.23438L0.178125 3.26563C-0.059375 3.02813 -0.059375 2.67188 0.178125 2.43438C0.415625 2.19688 0.771875 2.19688 1.00938 2.43438L4.15625 5.52188C4.275 5.64063 4.33438 5.81876 4.33438 5.93751V9.73751C5.28438 9.97501 5.99688 10.8656 5.99688 11.875V18.4656C5.99688 19.475 5.28438 20.3656 4.33438 20.6031V28.6188C4.33438 29.8063 5.28437 30.8156 6.47187 30.9344L8.25312 30.9938Z" fill="#26524E"/>
<path d="M28.5001 11.5781H11.8157C10.5094 11.5781 9.44067 12.6469 9.44067 13.9531V34.6156C9.44067 35.2687 9.97505 35.8031 10.6282 35.8031H29.6876C30.3407 35.8031 30.8751 35.2687 30.8751 34.6156V13.9531C30.8751 12.6469 29.8063 11.5781 28.5001 11.5781ZM29.0938 29.9844H11.2219C10.8657 29.9844 10.6282 29.6875 10.6282 29.3906C10.6282 29.0344 10.925 28.7969 11.2219 28.7969H29.0938C29.4501 28.7969 29.6876 29.0937 29.6876 29.3906C29.6876 29.6875 29.4501 29.9844 29.0938 29.9844ZM17.9313 22.2656C17.6938 22.0281 17.6938 21.6719 17.9313 21.4344C18.1688 21.1969 18.5251 21.1969 18.7626 21.4344L20.1876 22.8594L21.6126 21.4344C21.8501 21.1969 22.2063 21.1969 22.4438 21.4344C22.6813 21.6719 22.6813 22.0281 22.4438 22.2656L21.0188 23.6906L22.4438 25.1156C22.6813 25.3531 22.6813 25.7094 22.4438 25.9469C22.3251 26.0656 22.1469 26.125 22.0282 26.125C21.9094 26.125 21.7313 26.0656 21.6126 25.9469L20.1876 24.5219L18.7626 25.9469C18.6438 26.0656 18.4657 26.125 18.3469 26.125C18.1688 26.125 18.0501 26.0656 17.9313 25.9469C17.6938 25.7094 17.6938 25.3531 17.9313 25.1156L19.3563 23.6906L17.9313 22.2656ZM29.0938 18.5844H11.2219C10.8657 18.5844 10.6282 18.2875 10.6282 17.9906C10.6282 17.6344 10.925 17.3969 11.2219 17.3969H29.0938C29.4501 17.3969 29.6876 17.6938 29.6876 17.9906C29.6876 18.3469 29.4501 18.5844 29.0938 18.5844ZM24.4626 8.37188H15.9125C15.5563 8.37188 15.3188 8.66876 15.3188 8.96563V10.3313H25.1157V8.96563C25.0563 8.66876 24.8188 8.37188 24.4626 8.37188ZM20.1876 3.38438C18.7626 3.38438 17.6344 4.51251 17.6344 5.93751V7.18438H22.6813V5.93751C22.6813 4.51251 21.5532 3.38438 20.1876 3.38438Z" fill="#26524E"/>
</g>
<defs>
<clipPath id="clip0_832_331">
<rect width="38" height="38" fill="white"/>
</clipPath>
</defs>
</svg>
