<svg width="18" height="17" viewBox="0 0 18 17" fill="none" xmlns="http://www.w3.org/2000/svg">
<path fill-rule="evenodd" clip-rule="evenodd" d="M7.58333 0.375C3.87842 0.375 0.875 3.37842 0.875 7.08333C0.875 10.7882 3.87842 13.7917 7.58333 13.7917C9.09015 13.7917 10.4809 13.2949 11.6008 12.4561L15.5308 16.386C15.905 16.7603 16.5118 16.7603 16.886 16.386C17.2603 16.0118 17.2603 15.405 16.886 15.0308L12.9561 11.1008C13.7949 9.98094 14.2917 8.59015 14.2917 7.08333C14.2917 3.37842 11.2882 0.375 7.58333 0.375ZM2.79167 7.08333C2.79167 4.43697 4.93697 2.29167 7.58333 2.29167C10.2297 2.29167 12.375 4.43697 12.375 7.08333C12.375 9.7297 10.2297 11.875 7.58333 11.875C4.93697 11.875 2.79167 9.7297 2.79167 7.08333Z" fill="#BABABA"/>
</svg>
