<svg width="12" height="12" viewBox="0 0 12 12" fill="none" xmlns="http://www.w3.org/2000/svg">
<path d="M11.2207 4.82399C11.1847 4.71251 11.1167 4.61408 11.0252 4.54097C10.9336 4.46786 10.8226 4.42331 10.7059 4.41287L7.45886 4.11801L6.1749 1.11274C6.0802 0.8925 5.8646 0.749982 5.62505 0.749982C5.38549 0.749982 5.16987 0.892522 5.07521 1.11329L3.79123 4.11803L0.543656 4.41287C0.427113 4.42355 0.316267 4.46819 0.224859 4.54127C0.133452 4.61435 0.0655037 4.71265 0.029439 4.82399C-0.0446326 5.05181 0.0237699 5.30166 0.20428 5.45917L2.65869 7.61166L1.93493 10.7998C1.88198 11.0342 1.97295 11.2765 2.16745 11.4171C2.27198 11.4926 2.3943 11.5311 2.51764 11.5311C2.62399 11.5311 2.72946 11.5024 2.82417 11.4457L5.62505 9.77174L8.42491 11.4457C8.62979 11.569 8.88806 11.5577 9.08213 11.4171C9.17714 11.3483 9.24984 11.2531 9.29118 11.1434C9.33252 11.0336 9.34068 10.9141 9.31465 10.7998L8.59092 7.61166L11.0453 5.45961C11.1336 5.38249 11.1973 5.28114 11.2285 5.16814C11.2596 5.05513 11.2569 4.93546 11.2207 4.82399Z" fill="#2D9B8E"/>
</svg>
