<svg width="32" height="26" viewBox="0 0 32 26" fill="none" xmlns="http://www.w3.org/2000/svg">
<path d="M0.188312 14.6518C0.318379 15.6466 0.805854 16.56 1.55981 17.2218C2.31376 17.8836 3.28271 18.2485 4.28591 18.2485C5.28911 18.2485 6.25806 17.8836 7.01201 17.2218C7.76597 16.56 8.25344 15.6466 8.38351 14.6518H0.188312ZM22.516 22.9712C22.5162 23.0553 22.4999 23.1386 22.4679 23.2164C22.436 23.2942 22.389 23.3649 22.3297 23.4245C22.2704 23.4841 22.1999 23.5315 22.1222 23.5638C22.0446 23.5962 21.9614 23.6129 21.8773 23.6131H9.93743C9.58671 23.6131 9.29743 23.3251 9.29743 22.9712C9.29828 22.8021 9.36612 22.6403 9.48609 22.5212C9.60606 22.402 9.76836 22.3353 9.93743 22.3357H21.8766C22.2299 22.3357 22.516 22.6198 22.516 22.9712ZM9.36719 23.9401H22.4469V25.7878H9.36719V23.9401ZM23.6155 14.6518C23.7447 15.6472 24.2317 16.5616 24.9857 17.2242C25.7397 17.8867 26.709 18.2523 27.7128 18.2525C28.7164 18.2525 29.6857 17.887 30.4394 17.2243C31.1931 16.5617 31.6797 15.6472 31.8082 14.6518H23.6155ZM31.5829 13.3661L28.2274 8.74399H30.0213C30.4578 8.74399 30.8091 8.38623 30.8091 7.94399C30.8091 7.50559 30.4571 7.15167 30.0213 7.15167H20.5186C20.2365 6.37465 19.7547 5.68565 19.1217 5.154C18.4887 4.62235 17.7269 4.26682 16.9128 4.12319V1.62911C16.9128 1.18559 16.557 0.831667 16.116 0.831667L16.0418 0.839987L15.9675 0.831667C15.8628 0.831413 15.7591 0.85188 15.6623 0.891888C15.5656 0.931897 15.4777 0.990657 15.4037 1.06478C15.3298 1.13891 15.2713 1.22693 15.2315 1.32379C15.1917 1.42064 15.1715 1.52441 15.172 1.62911V4.12191C14.358 4.26544 13.5963 4.62095 12.9635 5.15263C12.3307 5.68431 11.8492 6.37336 11.5675 7.15039H2.06287C1.62959 7.15039 1.27631 7.50431 1.27631 7.94271C1.27631 8.38559 1.62959 8.74271 2.06287 8.74271H3.77487L0.418712 13.3648H-0.000488281V14.2185H8.57423V13.3648H8.15311L4.79823 8.74399H12.5864C12.5864 8.56351 12.6062 8.38623 12.6331 8.21663C12.6606 8.13663 12.6792 8.05535 12.6792 7.97151C12.8235 7.36347 13.1324 6.80692 13.5721 6.3629C14.0119 5.91888 14.5654 5.60455 15.172 5.45439V14.2205H15.1387C15.0702 17.5177 13.5016 20.3933 11.1746 22.0093H20.9115C18.5838 20.3933 17.0165 17.5177 16.9442 14.2205H16.9134V5.45439C17.5199 5.60459 18.0734 5.91894 18.513 6.36297C18.9526 6.80699 19.2614 7.36352 19.4056 7.97151C19.4082 8.05535 19.4254 8.13663 19.4536 8.21663C19.4792 8.38687 19.4952 8.56351 19.4952 8.74399H27.2021L23.8459 13.3661H23.4274V14.2198H31.9995V13.3661H31.5829ZM3.94511 13.3661H1.26671L3.94511 9.67647V13.3661ZM4.63055 13.3661V9.67647L7.30895 13.3661H4.63055ZM27.371 13.3661H24.6914L27.371 9.67647V13.3661ZM28.0533 13.3661V9.67647L30.7349 13.3661H28.0533ZM5.08175 6.03935C5.07588 6.24634 4.98952 6.44289 4.84103 6.58722C4.69255 6.73156 4.49363 6.8123 4.28655 6.8123C4.07947 6.8123 3.88056 6.73156 3.73207 6.58722C3.58358 6.44289 3.49722 6.24634 3.49135 6.03935C3.49135 5.60031 3.84847 5.24191 4.28815 5.24191C4.72591 5.24127 5.08175 5.60031 5.08175 6.03935ZM28.5083 5.99711C28.5083 6.43935 28.1525 6.79007 27.7134 6.79007C27.609 6.79074 27.5055 6.77071 27.4089 6.73112C27.3123 6.69154 27.2245 6.63319 27.1505 6.55944C27.0766 6.4857 27.018 6.39803 26.9782 6.30151C26.9384 6.20498 26.9181 6.10152 26.9186 5.99711C26.9143 5.89004 26.9316 5.78321 26.9696 5.68302C27.0077 5.58283 27.0655 5.49136 27.1397 5.41408C27.214 5.33681 27.3031 5.27533 27.4016 5.23333C27.5002 5.19133 27.6063 5.16968 27.7134 5.16968C27.8206 5.16968 27.9266 5.19133 28.0252 5.23333C28.1238 5.27533 28.2129 5.33681 28.2871 5.41408C28.3614 5.49136 28.4192 5.58283 28.4572 5.68302C28.4952 5.78321 28.5126 5.89004 28.5083 5.99711Z" fill="#2D9B8E"/>
</svg>
