<svg width="24" height="25" viewBox="0 0 24 25" fill="none" xmlns="http://www.w3.org/2000/svg">
<path d="M20.9727 7.20666C20.5083 7.82618 19.9469 8.36659 19.3102 8.80702C19.3102 8.96885 19.3102 9.13068 19.3102 9.30151C19.3153 12.2404 18.1414 15.0584 16.0517 17.1238C13.9619 19.1892 11.1311 20.3292 8.19393 20.2882C6.49587 20.2939 4.81955 19.9062 3.2963 19.1554C3.21416 19.1195 3.16119 19.0383 3.1615 18.9486V18.8497C3.1615 18.7206 3.26611 18.616 3.39515 18.616C5.0643 18.5609 6.6739 17.9822 7.99622 16.9617C6.48541 16.9312 5.12607 16.0362 4.50048 14.66C4.46889 14.5849 4.47872 14.4986 4.52645 14.4325C4.57417 14.3664 4.65288 14.33 4.73413 14.3364C5.1933 14.3825 5.65706 14.3398 6.10008 14.2105C4.43227 13.8643 3.17909 12.4797 2.99974 10.785C2.99337 10.7037 3.0298 10.625 3.09588 10.5772C3.16195 10.5295 3.24812 10.5196 3.32326 10.5513C3.77082 10.7488 4.25397 10.8528 4.74312 10.8569C3.28172 9.89772 2.65049 8.07331 3.20643 6.41548C3.26382 6.25439 3.40169 6.13538 3.56938 6.1022C3.73706 6.06901 3.90984 6.12654 4.0242 6.25365C5.99627 8.35251 8.70592 9.60322 11.5818 9.74205C11.5082 9.44811 11.472 9.14602 11.474 8.84298C11.5009 7.25398 12.4841 5.83847 13.9633 5.25913C15.4424 4.6798 17.1248 5.05129 18.2229 6.1997C18.9713 6.05711 19.6949 5.80571 20.3706 5.45347C20.4201 5.42257 20.4829 5.42257 20.5324 5.45347C20.5633 5.50299 20.5633 5.56578 20.5324 5.6153C20.2051 6.36478 19.6522 6.99338 18.9508 7.41345C19.565 7.34222 20.1684 7.19733 20.7481 6.9819C20.7969 6.94868 20.861 6.94868 20.9098 6.9819C20.9507 7.0006 20.9813 7.03637 20.9934 7.07968C21.0055 7.12299 20.9979 7.16944 20.9727 7.20666Z" fill="black"/>
</svg>
