<svg width="12" height="12" viewBox="0 0 12 12" fill="none" xmlns="http://www.w3.org/2000/svg">
<path d="M11.2207 4.82401C11.1847 4.71252 11.1167 4.61409 11.0252 4.54099C10.9336 4.46788 10.8226 4.42333 10.7059 4.41289L7.45886 4.11803L6.1749 1.11276C6.0802 0.892518 5.8646 0.75 5.62505 0.75C5.38549 0.75 5.16987 0.89254 5.07521 1.1133L3.79123 4.11805L0.543656 4.41289C0.427113 4.42356 0.316267 4.46821 0.224859 4.54129C0.133452 4.61437 0.0655037 4.71267 0.029439 4.82401C-0.0446326 5.05182 0.0237699 5.30168 0.20428 5.45919L2.65869 7.61168L1.93493 10.7998C1.88198 11.0342 1.97295 11.2765 2.16745 11.4171C2.27198 11.4926 2.3943 11.5311 2.51764 11.5311C2.62399 11.5311 2.72946 11.5024 2.82417 11.4458L5.62505 9.77176L8.42491 11.4458C8.62979 11.569 8.88806 11.5578 9.08213 11.4171C9.17714 11.3483 9.24984 11.2531 9.29118 11.1434C9.33252 11.0336 9.34068 10.9141 9.31465 10.7998L8.59092 7.61168L11.0453 5.45963C11.1336 5.38251 11.1973 5.28116 11.2285 5.16816C11.2596 5.05515 11.2569 4.93548 11.2207 4.82401Z" fill="#967E00"/>
</svg>
