<svg width="107" height="32" viewBox="0 0 107 32" fill="none" xmlns="http://www.w3.org/2000/svg">
<g clip-path="url(#clip0_124_65)">
<path d="M49.6091 27.1406C49.6091 23.2656 49.7064 22.7812 50.4846 22.7812C51.0196 22.7812 52.2355 23.9437 53.4028 25.5422L55.4455 28.3031V25.5422C55.4455 23.4109 55.5914 22.7812 56.175 22.7812C56.7587 22.7812 56.9046 23.6047 56.9046 27.1406C56.9046 30.9672 56.8073 31.5 56.0778 31.5C55.5914 31.5 54.3269 30.2891 53.2569 28.7875L51.3114 26.075L51.1655 28.7875C51.0682 30.7734 50.825 31.5 50.3387 31.5C49.755 31.5 49.6091 30.6281 49.6091 27.1406Z" fill="#BABABE"/>
<path d="M59.677 30.6281C58.5097 29.3687 58.607 26.3656 59.7742 25.6875C61.0874 25.0094 63.8597 25.0578 64.5892 25.7844C64.9297 26.1234 65.1729 26.9953 65.1729 27.7219C65.1729 28.4484 64.9297 29.0781 64.5892 29.0781C64.1515 29.0781 64.1515 29.2234 64.5892 29.6594C65.5133 30.5797 64.3461 31.5 62.2547 31.5C61.1361 31.5 60.1633 31.1609 59.677 30.6281ZM63.4706 29.5625C63.6652 29.2719 63.1302 29.0781 62.2547 29.0781C61.3792 29.0781 60.8442 29.2719 61.0388 29.5625C61.1847 29.8531 61.7683 30.0469 62.2547 30.0469C62.7411 30.0469 63.3247 29.8531 63.4706 29.5625ZM62.9842 27.1406C62.8383 26.8984 62.4006 26.6562 62.0115 26.6562C61.6224 26.6562 61.1847 26.8984 61.0388 27.1406C60.8442 27.4312 61.282 27.625 62.0115 27.625C62.7411 27.625 63.1788 27.4312 62.9842 27.1406Z" fill="#BABABE"/>
<path d="M67.8478 30.9188C65.8537 25.4453 65.8537 25.2031 67.1183 25.2031C67.7505 25.2031 68.1883 25.6875 68.5287 26.8016L68.9664 28.3516L69.5501 26.8016C69.8905 25.7844 70.4742 25.2031 71.0092 25.2031C71.5442 25.2031 72.1278 25.7844 72.4683 26.8016L73.1005 28.3516L73.5869 26.8016C73.8787 25.7359 74.3651 25.2031 74.9487 25.2031C76.0674 25.2031 76.0674 25.6875 74.9487 28.8359C73.8787 31.8875 72.4196 32.3719 71.6414 29.95L71.1551 28.3516L70.5228 29.95C69.9392 31.5484 68.2855 32.1297 67.8478 30.9188Z" fill="#BABABE"/>
<path d="M76.8941 31.0641C75.7755 30.3375 76.7969 29.4656 78.3532 29.8047C80.2014 30.2406 80.1528 29.6594 78.256 28.9813C76.9914 28.5453 76.7969 28.2547 76.9428 26.9469C77.0887 25.4938 77.186 25.4453 79.2773 25.4453C80.8823 25.4453 81.466 25.6391 81.466 26.1719C81.466 26.6562 81.0769 26.85 80.1528 26.7531C78.3532 26.5594 78.4505 27.0438 80.2987 27.7219C81.5632 28.1578 81.7578 28.4484 81.6119 29.7563C81.466 31.1609 81.32 31.2578 79.5205 31.4031C78.4505 31.4516 77.2832 31.3063 76.8941 31.0641Z" fill="#BABABE"/>
<path d="M68.7717 9.12186C68.5772 8.7828 68.6258 8.73436 68.9663 8.92811C69.5499 9.26717 69.7445 9.70311 69.3554 9.70311C69.2095 9.70311 68.9663 9.46092 68.7717 9.12186Z" fill="#BABABE"/>
<path d="M8.26818 19.4391C8.26818 19.1969 8.60864 18.9062 8.99773 18.7125C9.53273 18.5187 9.72727 17.6953 9.72727 15.5641C9.72727 12.7547 9.67864 12.6094 6.56591 8.78281C4.815 6.65156 2.62636 4.27812 1.70227 3.55156C0.778182 2.825 0 2.05 0 1.85625C0 1.61406 1.75091 1.46875 3.93955 1.46875C7.44136 1.46875 7.83045 1.56562 7.58727 2.34062C7.34409 3.16406 11.7214 9.21875 12.5968 9.21875C13.4723 9.21875 18.2386 3.2125 18.0927 2.34062C17.9468 1.56562 18.2873 1.46875 20.865 1.46875C22.5186 1.46875 23.8318 1.56562 23.8318 1.71094C23.8318 1.80781 22.9077 2.87344 21.7891 3.9875C20.6218 5.15 18.4332 7.62031 16.9255 9.50937C14.2505 12.8031 14.1045 13.0938 14.1045 15.7094C14.1045 17.6953 14.2991 18.5187 14.8341 18.7125C16.5364 19.3906 15.3205 19.875 11.9159 19.875C9.92182 19.875 8.26818 19.6812 8.26818 19.4391Z" fill="#BABABE"/>
<path d="M16.5364 19.5844C16.5364 19.4391 16.8768 19.0031 17.2659 18.6156C17.655 18.2281 19.7464 14.9828 21.8864 11.3984C24.075 7.81406 26.0205 4.85938 26.2636 4.85938C26.6041 4.85938 34.1427 17.5984 34.9209 19.4875C35.0182 19.6812 33.8509 19.875 32.3432 19.875C30.4464 19.875 29.6682 19.6812 29.7655 19.2937C29.8141 18.9547 29.6682 18.1797 29.4736 17.5984C29.1332 16.5812 28.8414 16.4844 25.0964 16.4844C21.3514 16.4844 21.0596 16.5812 20.5246 17.6469C20.1841 18.4703 20.1841 18.9547 20.5732 19.3422C20.9623 19.7297 20.5246 19.875 18.8223 19.875C17.5577 19.875 16.5364 19.7297 16.5364 19.5844ZM27.7227 14.3047C27.7227 14.1594 27.1391 13.1422 26.4582 12.0766C25.145 9.94531 25.0477 9.94531 23.3941 12.7547L22.2755 14.5469H24.9991C26.5068 14.5469 27.7227 14.45 27.7227 14.3047Z" fill="#BABABE"/>
<path d="M36.7205 12.6094V5.34377H39.2009H41.73L41.4382 8.49221L41.195 11.6406H45.4264H49.6091V9.50939C49.6091 8.29846 49.4146 7.18439 49.1227 7.03908C48.8795 6.89377 48.6364 6.40939 48.6364 6.02189C48.6364 5.15002 53.7432 5.05314 54.2782 5.92502C54.4727 6.21564 54.3755 6.60314 54.0836 6.70002C53.2568 6.94221 53.2568 18.4703 54.0836 19.2938C54.5214 19.7297 53.9864 19.875 51.6518 19.875C48.8795 19.875 47.9068 19.3906 49.1227 18.6641C49.4146 18.5188 49.6091 17.3078 49.6091 15.9516V13.5781H45.4264H41.2436L41.4382 16.7266L41.6327 19.875H39.1523H36.7205V12.6094Z" fill="#BABABE"/>
<path d="M59.3364 18.8094C56.4668 17.3078 55.2996 15.6125 55.2996 12.8516C55.2996 8.54062 58.9959 5.82812 64.8809 5.82812C70.8632 5.82812 74.6568 8.58906 74.6568 12.8516C74.6568 17.1141 70.8632 19.875 64.9296 19.875C62.3032 19.875 60.99 19.6328 59.3364 18.8094ZM68.5773 16.5812C71.2037 14.5953 70.9118 9.94531 68.0423 8.49219C64.5891 6.7 60.2118 8.44375 59.5309 11.8828C58.6555 16.5328 64.4918 19.5844 68.5773 16.5812Z" fill="#BABABE"/>
<path d="M82.5846 19.4391C78.5478 18.1313 76.1646 15.2734 76.2619 11.8344C76.3105 7.28125 80.931 4.18125 87.5455 4.13281C95.8624 4.13281 101.018 9.65469 98.051 15.3703C97.6133 16.2422 96.2514 17.55 94.9869 18.2766C92.9928 19.3906 92.0687 19.6328 88.2751 19.7297C85.8919 19.7781 83.3142 19.6328 82.5846 19.4391ZM90.0746 17.4531C91.0474 17.1625 92.4578 16.2422 93.1387 15.4188C94.2574 14.0625 94.4519 13.5297 94.2574 11.5438C93.9655 8.6375 92.6524 7.13594 89.6855 6.3125C87.0592 5.5375 83.8005 6.3125 82.1469 8.05625C80.5419 9.75156 80.2987 13.4328 81.7578 15.225C83.6546 17.6469 86.5242 18.4219 90.0746 17.4531Z" fill="#BABABE"/>
<path d="M100.872 19.1969C100.726 18.8094 100.677 17.9859 100.774 17.3562C100.872 16.4359 101.212 16.2422 102.623 16.2422C104.228 16.2422 104.325 16.3391 104.325 17.9375C104.325 19.4875 104.179 19.6328 102.72 19.7781C101.699 19.875 101.066 19.6812 100.872 19.1969Z" fill="#BABABE"/>
<path d="M101.99 14.7406C101.796 14.5469 101.65 11.2531 101.65 7.42658V0.500021H104.325C107.584 0.500021 107.535 0.160959 105.638 8.7344C104.519 13.9172 104.179 14.7891 103.304 14.9344C102.769 15.0313 102.185 14.9344 101.99 14.7406Z" fill="#BABABE"/>
</g>
<defs>
<clipPath id="clip0_124_65">
<rect width="107" height="31" fill="white" transform="translate(0 0.5)"/>
</clipPath>
</defs>
</svg>
